<svg width="370" height="243" viewBox="0 0 370 243" fill="none" xmlns="http://www.w3.org/2000/svg">
<path d="M121.668 139.703V163.336H19.3242L17.6641 144.781L75.8672 51.8125H99.9883L73.8164 95.1719L47.3516 139.703H121.668ZM106.434 51.8125V194H75.9648V51.8125H106.434ZM233.875 110.211V135.504C233.875 145.921 232.703 154.938 230.359 162.555C228.081 170.172 224.76 176.454 220.398 181.402C216.102 186.35 210.958 190.029 204.969 192.438C199.044 194.781 192.469 195.953 185.242 195.953C179.448 195.953 174.044 195.204 169.031 193.707C164.018 192.21 159.493 189.898 155.457 186.773C151.486 183.583 148.068 179.612 145.203 174.859C142.339 170.107 140.125 164.443 138.562 157.867C137.065 151.292 136.316 143.837 136.316 135.504V110.211C136.316 99.6641 137.456 90.6146 139.734 83.0625C142.078 75.5104 145.431 69.2604 149.793 64.3125C154.155 59.3646 159.298 55.7188 165.223 53.375C171.212 51.0312 177.82 49.8594 185.047 49.8594C190.841 49.8594 196.212 50.6081 201.16 52.1055C206.173 53.6029 210.698 55.9141 214.734 59.0391C218.771 62.1641 222.189 66.1029 224.988 70.8555C227.853 75.6081 230.034 81.2721 231.531 87.8477C233.094 94.3581 233.875 101.812 233.875 110.211ZM203.406 139.312V106.207C203.406 101.324 203.113 97.0924 202.527 93.5117C202.007 89.8659 201.225 86.7734 200.184 84.2344C199.207 81.6953 197.97 79.6445 196.473 78.082C194.975 76.5195 193.25 75.3802 191.297 74.6641C189.409 73.8828 187.326 73.4922 185.047 73.4922C182.182 73.4922 179.611 74.0781 177.332 75.25C175.053 76.4219 173.133 78.2773 171.57 80.8164C170.008 83.2904 168.803 86.6432 167.957 90.875C167.176 95.0417 166.785 100.152 166.785 106.207V139.312C166.785 144.195 167.046 148.46 167.566 152.105C168.152 155.751 168.934 158.876 169.91 161.48C170.952 164.02 172.221 166.103 173.719 167.73C175.216 169.293 176.941 170.432 178.895 171.148C180.848 171.865 182.964 172.223 185.242 172.223C188.107 172.223 190.646 171.669 192.859 170.562C195.073 169.391 196.961 167.535 198.523 164.996C200.151 162.392 201.355 158.974 202.137 154.742C202.983 150.51 203.406 145.367 203.406 139.312ZM352.527 139.703V163.336H250.184L248.523 144.781L306.727 51.8125H330.848L304.676 95.1719L278.211 139.703H352.527ZM337.293 51.8125V194H306.824V51.8125H337.293Z" fill="#FFD4D4"/>
<path d="M109.668 130.703V154.336H7.32422L5.66406 135.781L63.8672 42.8125H87.9883L61.8164 86.1719L35.3516 130.703H109.668ZM94.4336 42.8125V185H63.9648V42.8125H94.4336ZM221.875 101.211V126.504C221.875 136.921 220.703 145.938 218.359 153.555C216.081 161.172 212.76 167.454 208.398 172.402C204.102 177.35 198.958 181.029 192.969 183.438C187.044 185.781 180.469 186.953 173.242 186.953C167.448 186.953 162.044 186.204 157.031 184.707C152.018 183.21 147.493 180.898 143.457 177.773C139.486 174.583 136.068 170.612 133.203 165.859C130.339 161.107 128.125 155.443 126.562 148.867C125.065 142.292 124.316 134.837 124.316 126.504V101.211C124.316 90.6641 125.456 81.6146 127.734 74.0625C130.078 66.5104 133.431 60.2604 137.793 55.3125C142.155 50.3646 147.298 46.7188 153.223 44.375C159.212 42.0312 165.82 40.8594 173.047 40.8594C178.841 40.8594 184.212 41.6081 189.16 43.1055C194.173 44.6029 198.698 46.9141 202.734 50.0391C206.771 53.1641 210.189 57.1029 212.988 61.8555C215.853 66.6081 218.034 72.2721 219.531 78.8477C221.094 85.3581 221.875 92.8125 221.875 101.211ZM191.406 130.312V97.207C191.406 92.3242 191.113 88.0924 190.527 84.5117C190.007 80.8659 189.225 77.7734 188.184 75.2344C187.207 72.6953 185.97 70.6445 184.473 69.082C182.975 67.5195 181.25 66.3802 179.297 65.6641C177.409 64.8828 175.326 64.4922 173.047 64.4922C170.182 64.4922 167.611 65.0781 165.332 66.25C163.053 67.4219 161.133 69.2773 159.57 71.8164C158.008 74.2904 156.803 77.6432 155.957 81.875C155.176 86.0417 154.785 91.1523 154.785 97.207V130.312C154.785 135.195 155.046 139.46 155.566 143.105C156.152 146.751 156.934 149.876 157.91 152.48C158.952 155.02 160.221 157.103 161.719 158.73C163.216 160.293 164.941 161.432 166.895 162.148C168.848 162.865 170.964 163.223 173.242 163.223C176.107 163.223 178.646 162.669 180.859 161.562C183.073 160.391 184.961 158.535 186.523 155.996C188.151 153.392 189.355 149.974 190.137 145.742C190.983 141.51 191.406 136.367 191.406 130.312ZM340.527 130.703V154.336H238.184L236.523 135.781L294.727 42.8125H318.848L292.676 86.1719L266.211 130.703H340.527ZM325.293 42.8125V185H294.824V42.8125H325.293Z" fill="#D86F6F"/>
</svg>
