<svg width="13" height="13" viewBox="0 0 13 13" fill="none" xmlns="http://www.w3.org/2000/svg">
<mask id="mask0_19_3570" style="mask-type:alpha" maskUnits="userSpaceOnUse" x="0" y="0" width="13" height="13">
<path d="M7.31994 0.914993C7.31994 0.408888 6.91106 0 6.40495 0C5.89885 0 5.48996 0.408888 5.48996 0.914993V5.48996H0.914993C0.408888 5.48996 0 5.89885 0 6.40495C0 6.91106 0.408888 7.31994 0.914993 7.31994H5.48996V11.8949C5.48996 12.401 5.89885 12.8099 6.40495 12.8099C6.91106 12.8099 7.31994 12.401 7.31994 11.8949V7.31994H11.8949C12.401 7.31994 12.8099 6.91106 12.8099 6.40495C12.8099 5.89885 12.401 5.48996 11.8949 5.48996H7.31994V0.914993Z" fill="black"/>
</mask>
<g mask="url(#mask0_19_3570)">
<rect x="-8.54025" width="35.8677" height="21.3498" fill="#D86F6F"/>
</g>
</svg>
