<svg width="113" height="46" viewBox="0 0 113 46" fill="none" xmlns="http://www.w3.org/2000/svg">
<path d="M10.7607 35.212C10.4967 35.212 10.2807 35.128 10.1127 34.96C9.92073 34.816 9.82473 34.612 9.82473 34.348C9.82473 34.012 9.99273 33.616 10.3287 33.16C10.6407 32.704 11.1687 32.2 11.9127 31.648C12.0327 31.336 12.1167 31.048 12.1647 30.784C12.2367 30.52 12.2967 30.232 12.3447 29.92C12.5127 28.864 12.8127 27.796 13.2447 26.716C13.6767 25.612 14.1087 24.58 14.5407 23.62C14.0847 23.524 13.6287 23.164 13.1727 22.54C12.7407 21.916 12.5247 21.256 12.5247 20.56C12.5247 20.392 12.5607 20.116 12.6327 19.732C12.7047 19.324 12.8247 19.12 12.9927 19.12C13.2087 19.12 13.3167 19.3 13.3167 19.66C13.3167 20.02 13.3167 20.272 13.3167 20.416C13.3167 20.92 13.4607 21.424 13.7487 21.928C14.0367 22.432 14.3847 22.792 14.7927 23.008C15.2007 22.12 15.7167 21.076 16.3407 19.876C16.9647 18.652 17.6727 17.368 18.4647 16.024C19.2567 14.656 20.1207 13.324 21.0567 12.028C21.9927 10.732 22.9767 9.556 24.0087 8.5C25.0647 7.444 26.1567 6.604 27.2847 5.98C28.4127 5.356 29.5647 5.044 30.7407 5.044C31.7007 5.044 32.3967 5.296 32.8287 5.8C33.2607 6.28 33.4767 6.94 33.4767 7.78C33.4767 8.668 33.2607 9.688 32.8287 10.84C32.3967 11.992 31.7847 13.192 30.9927 14.44C30.2247 15.664 29.3247 16.864 28.2927 18.04C27.2607 19.192 26.1327 20.248 24.9087 21.208C23.6847 22.144 22.4127 22.888 21.0927 23.44C19.7727 23.992 18.4527 24.268 17.1327 24.268C16.8687 24.268 16.6047 24.256 16.3407 24.232C16.0767 24.184 15.8247 24.112 15.5847 24.016C15.1047 25.144 14.6607 26.272 14.2527 27.4C13.8447 28.528 13.5207 29.704 13.2807 30.928C15.1287 29.8 17.1327 28.984 19.2927 28.48C21.4527 27.976 23.6127 27.724 25.7727 27.724C26.3487 27.724 27.0087 27.832 27.7527 28.048C28.4967 28.24 29.1327 28.552 29.6607 28.984C30.2127 29.416 30.4887 30.004 30.4887 30.748C30.4887 31.348 30.4287 31.648 30.3087 31.648C30.1887 31.648 30.0447 31.432 29.8767 31C29.5407 30.136 29.0127 29.596 28.2927 29.38C27.5727 29.14 26.7807 29.02 25.9167 29.02C24.4527 29.02 23.1927 29.092 22.1367 29.236C21.1047 29.356 20.1447 29.548 19.2567 29.812C18.3927 30.076 17.4927 30.4 16.5567 30.784C15.6207 31.168 14.5167 31.612 13.2447 32.116C13.0527 33.22 12.6927 34.012 12.1647 34.492C11.6607 34.972 11.1927 35.212 10.7607 35.212ZM16.9527 23.62C18.2247 23.62 19.4847 23.344 20.7327 22.792C22.0047 22.216 23.2167 21.46 24.3687 20.524C25.5447 19.564 26.6247 18.508 27.6087 17.356C28.5927 16.204 29.4447 15.04 30.1647 13.864C30.9087 12.664 31.4847 11.536 31.8927 10.48C32.3007 9.4 32.5047 8.488 32.5047 7.744C32.5047 7.192 32.3727 6.76 32.1087 6.448C31.8687 6.136 31.4847 5.98 30.9567 5.98C30.0687 5.98 29.1327 6.292 28.1487 6.916C27.1887 7.54 26.2047 8.38 25.1967 9.436C24.1887 10.492 23.2047 11.656 22.2447 12.928C21.3087 14.2 20.4207 15.496 19.5807 16.816C18.7647 18.112 18.0327 19.348 17.3847 20.524C16.7367 21.676 16.2327 22.648 15.8727 23.44C15.9927 23.512 16.1727 23.56 16.4127 23.584C16.6527 23.608 16.8327 23.62 16.9527 23.62ZM34.9719 18.976C34.7559 18.976 34.5999 18.868 34.5039 18.652C34.4319 18.412 34.3959 18.244 34.3959 18.148C34.3959 17.764 34.5039 17.404 34.7199 17.068C34.9599 16.708 35.2239 16.516 35.5119 16.492H35.6199C35.9079 16.492 36.0999 16.564 36.1959 16.708C36.3159 16.828 36.3759 16.984 36.3759 17.176C36.3759 17.536 36.2199 17.932 35.9079 18.364C35.5959 18.772 35.2839 18.976 34.9719 18.976ZM33.1359 31.864C32.3199 31.864 31.7679 31.552 31.4799 30.928C31.1919 30.304 31.0479 29.584 31.0479 28.768C31.0479 27.952 31.1319 27.1 31.2999 26.212C31.4919 25.3 31.6959 24.472 31.9119 23.728C32.1519 22.984 32.3319 22.456 32.4519 22.144C32.7159 21.592 32.9799 21.124 33.2439 20.74C33.5079 20.332 33.7959 20.128 34.1079 20.128C34.3239 20.128 34.4799 20.212 34.5759 20.38C34.6959 20.524 34.7559 20.716 34.7559 20.956C34.7559 21.436 34.6239 21.928 34.3599 22.432C34.0959 22.912 33.8559 23.368 33.6399 23.8C33.1599 24.784 32.7759 25.66 32.4879 26.428C32.2239 27.196 32.0919 28.156 32.0919 29.308C32.0919 30.052 32.1639 30.592 32.3079 30.928C32.4759 31.264 32.7039 31.432 32.9919 31.432C33.3759 31.432 33.8199 31.216 34.3239 30.784C34.8279 30.328 35.3439 29.728 35.8719 28.984C36.3999 28.24 36.8679 27.436 37.2759 26.572C37.5399 26.02 37.7439 25.744 37.8879 25.744C37.9839 25.744 38.0319 25.84 38.0319 26.032C38.0319 26.296 37.9239 26.68 37.7079 27.184C37.5159 27.664 37.2759 28.156 36.9879 28.66C36.7239 29.164 36.4719 29.56 36.2319 29.848C35.8239 30.376 35.3559 30.844 34.8279 31.252C34.2999 31.66 33.7359 31.864 33.1359 31.864ZM40.2301 36.76C39.9901 36.76 39.7381 36.604 39.4741 36.292C39.2341 36.004 39.0061 35.596 38.7901 35.068C38.4301 34.204 38.1781 33.292 38.0341 32.332C37.8901 31.396 37.8181 30.448 37.8181 29.488C37.8181 28.432 37.8901 27.4 38.0341 26.392C38.1781 25.384 38.3341 24.472 38.5021 23.656C38.6221 23.08 38.7661 22.468 38.9341 21.82C39.1021 21.172 39.2581 20.656 39.4021 20.272C39.2581 20.296 39.0301 20.38 38.7181 20.524C38.4061 20.668 38.0821 20.812 37.7461 20.956C37.4341 21.1 37.1581 21.172 36.9181 21.172C36.5581 21.172 36.3781 20.968 36.3781 20.56C36.3781 20.344 36.4501 20.152 36.5941 19.984C36.7621 19.816 36.9661 19.684 37.2061 19.588C37.6861 19.372 38.2141 19.216 38.7901 19.12C39.3661 19 39.7501 18.88 39.9421 18.76L40.8781 16.384C40.9741 16.144 41.1421 15.76 41.3821 15.232C41.6461 14.68 41.9461 14.092 42.2821 13.468C42.6421 12.844 42.9901 12.28 43.3261 11.776C43.5901 11.392 43.8421 11.092 44.0821 10.876C44.3221 10.636 44.5861 10.516 44.8741 10.516C45.3061 10.516 45.5221 10.684 45.5221 11.02C45.5221 11.212 45.4381 11.5 45.2701 11.884C45.1261 12.268 44.8501 12.772 44.4421 13.396C43.9861 14.116 43.5181 14.836 43.0381 15.556C42.5821 16.252 42.1861 16.984 41.8501 17.752C41.8261 17.848 41.7661 18.004 41.6701 18.22C41.5981 18.412 41.5381 18.532 41.4901 18.58L42.2101 18.472C42.4021 18.448 42.6181 18.436 42.8581 18.436C43.0981 18.412 43.3621 18.4 43.6501 18.4C44.0581 18.4 44.4421 18.424 44.8021 18.472C45.1861 18.496 45.4981 18.556 45.7381 18.652C45.8581 18.7 45.9661 18.76 46.0621 18.832C46.1821 18.88 46.2421 18.928 46.2421 18.976C46.2421 19.072 45.9301 19.12 45.3061 19.12C44.9461 19.12 44.4301 19.18 43.7581 19.3C43.1101 19.42 42.3661 19.612 41.5261 19.876C41.1181 19.996 40.8421 20.164 40.6981 20.38C40.5541 20.596 40.3621 21.112 40.1221 21.928C39.7621 23.224 39.4741 24.472 39.2581 25.672C39.0421 26.848 38.8741 28.048 38.7541 29.272C38.7301 29.512 38.7061 29.764 38.6821 30.028C38.6821 30.292 38.6821 30.58 38.6821 30.892C38.6821 31.708 38.7541 32.56 38.8981 33.448C39.0661 34.336 39.3061 35.104 39.6181 35.752C39.6901 35.896 39.7621 36.028 39.8341 36.148C39.9301 36.268 40.0381 36.352 40.1581 36.4C40.3261 36.472 40.4101 36.556 40.4101 36.652C40.4101 36.724 40.3501 36.76 40.2301 36.76ZM46.349 31.468C45.485 31.468 44.729 30.964 44.081 29.956C43.457 28.924 43.145 27.304 43.145 25.096C43.145 23.656 43.325 22.504 43.685 21.64C44.045 20.752 44.489 20.104 45.017 19.696C45.545 19.288 46.049 19.084 46.529 19.084C47.009 19.084 47.417 19.252 47.753 19.588C48.089 19.9 48.257 20.356 48.257 20.956C48.257 21.532 48.089 22.144 47.753 22.792C47.417 23.416 47.009 23.992 46.529 24.52C46.073 25.024 45.617 25.36 45.161 25.528C45.065 25.576 44.945 25.6 44.801 25.6C44.705 25.6 44.657 25.564 44.657 25.492C44.657 25.3 44.849 25.084 45.233 24.844C45.713 24.508 46.169 24.004 46.601 23.332C47.033 22.636 47.249 22.024 47.249 21.496C47.249 21.184 47.177 20.944 47.033 20.776C46.889 20.584 46.721 20.488 46.529 20.488C46.169 20.488 45.773 20.776 45.341 21.352C44.933 21.904 44.633 22.864 44.441 24.232C44.393 24.616 44.345 24.988 44.297 25.348C44.273 25.684 44.261 26.02 44.261 26.356C44.261 27.7 44.465 28.756 44.873 29.524C45.281 30.268 45.821 30.64 46.493 30.64C47.069 30.64 47.717 30.304 48.437 29.632C49.157 28.936 49.865 27.856 50.561 26.392C50.729 26.008 50.921 25.816 51.137 25.816C51.281 25.816 51.353 25.912 51.353 26.104C51.353 26.272 51.305 26.452 51.209 26.644C50.585 28.18 49.829 29.368 48.941 30.208C48.053 31.048 47.189 31.468 46.349 31.468ZM55.0697 32.8C54.3017 32.8 53.7137 32.44 53.3057 31.72C52.8977 31.024 52.6937 30.256 52.6937 29.416C52.6937 28.624 52.8257 27.796 53.0897 26.932C53.3537 26.068 53.6777 25.216 54.0617 24.376C54.4697 23.536 54.8897 22.768 55.3217 22.072C54.8897 22.24 54.4817 22.324 54.0977 22.324C53.9057 22.324 53.7377 22.3 53.5937 22.252C53.4497 22.204 53.3297 22.168 53.2337 22.144C53.1137 22.432 52.8977 22.912 52.5857 23.584C52.2977 24.256 51.9857 24.964 51.6497 25.708C51.3377 26.428 51.0617 27.04 50.8217 27.544C50.4377 28.36 50.1017 28.768 49.8137 28.768C49.6697 28.768 49.5977 28.672 49.5977 28.48C49.5977 28.336 49.6577 28.144 49.7777 27.904C50.3297 26.872 50.8457 25.852 51.3257 24.844C51.8297 23.836 52.2857 22.864 52.6937 21.928C52.6457 21.808 52.5977 21.652 52.5497 21.46C52.5017 21.244 52.4777 21.016 52.4777 20.776C52.4777 20.512 52.5017 20.236 52.5497 19.948C52.6217 19.636 52.7177 19.336 52.8377 19.048C52.9097 18.88 53.0417 18.64 53.2337 18.328C53.4257 17.992 53.6417 17.692 53.8817 17.428C54.1217 17.14 54.3497 16.996 54.5657 16.996C54.9737 16.996 55.1777 17.212 55.1777 17.644C55.1777 18.052 55.0457 18.52 54.7817 19.048C54.5417 19.576 54.2897 20.068 54.0257 20.524C53.7617 20.956 53.6297 21.28 53.6297 21.496C53.6297 21.688 53.7257 21.784 53.9177 21.784C54.1817 21.784 54.5057 21.652 54.8897 21.388C55.2977 21.1 55.6217 20.836 55.8617 20.596C55.9817 20.476 56.1737 20.296 56.4377 20.056C56.7017 19.792 56.9537 19.66 57.1937 19.66C57.4337 19.66 57.5897 19.732 57.6617 19.876C57.7577 20.02 57.8057 20.188 57.8057 20.38C57.8057 20.596 57.7097 20.872 57.5177 21.208C57.3257 21.52 57.0977 21.832 56.8337 22.144C56.5937 22.456 56.3897 22.72 56.2217 22.936C55.8857 23.44 55.5017 24.076 55.0697 24.844C54.6377 25.612 54.2657 26.44 53.9537 27.328C53.6417 28.192 53.4857 29.02 53.4857 29.812C53.4857 30.34 53.6177 30.892 53.8817 31.468C54.1457 32.044 54.5057 32.332 54.9617 32.332C55.3697 32.332 55.8017 32.116 56.2577 31.684C56.7377 31.252 57.1817 30.736 57.5897 30.136C58.0217 29.536 58.3937 28.96 58.7057 28.408C59.0417 27.856 59.2697 27.472 59.3897 27.256C59.4377 27.136 59.5217 26.992 59.6417 26.824C59.7617 26.632 59.9057 26.536 60.0737 26.536C60.2177 26.536 60.2897 26.608 60.2897 26.752C60.2897 26.872 60.2537 27.016 60.1817 27.184C60.1337 27.328 60.0857 27.46 60.0377 27.58C59.8217 28.084 59.5577 28.612 59.2457 29.164C58.9337 29.716 58.7177 30.088 58.5977 30.28C58.2617 30.832 57.7577 31.384 57.0857 31.936C56.4377 32.512 55.7657 32.8 55.0697 32.8ZM60.7878 30.712C60.3558 30.712 60.0438 30.532 59.8518 30.172C59.6598 29.788 59.5638 29.344 59.5638 28.84C59.5638 28.192 59.6718 27.436 59.8878 26.572C60.1278 25.708 60.4398 24.82 60.8238 23.908C61.2078 22.972 61.6398 22.12 62.1198 21.352C62.6238 20.56 63.1518 19.924 63.7038 19.444C64.2558 18.94 64.7958 18.688 65.3238 18.688C65.8038 18.688 66.2118 18.904 66.5478 19.336C66.9078 19.744 67.0878 20.212 67.0878 20.74C67.0878 21.052 67.0398 21.316 66.9438 21.532C66.8478 21.724 66.7398 21.82 66.6198 21.82C66.5238 21.82 66.4398 21.748 66.3678 21.604C66.1278 21.052 65.8638 20.656 65.5758 20.416C65.3118 20.176 65.0358 20.056 64.7478 20.056C64.2678 20.056 63.7878 20.332 63.3078 20.884C62.8518 21.412 62.4798 22.024 62.1918 22.72C61.9518 23.248 61.7238 23.884 61.5078 24.628C61.3158 25.348 61.1478 26.068 61.0038 26.788C60.8838 27.484 60.8238 28.06 60.8238 28.516C60.8238 29.332 61.0158 29.74 61.3998 29.74C61.8798 29.74 62.4918 29.212 63.2358 28.156C63.7878 27.388 64.2798 26.5 64.7118 25.492C65.1678 24.484 65.5518 23.608 65.8638 22.864C65.9838 22.624 66.1158 22.468 66.2598 22.396C66.4038 22.324 66.5358 22.288 66.6558 22.288C66.9438 22.288 67.1238 22.408 67.1958 22.648C67.2918 22.888 67.3398 23.092 67.3398 23.26C67.3398 23.884 67.2798 24.448 67.1598 24.952C67.0398 25.432 66.9798 26.02 66.9798 26.716C66.9798 27.22 67.0158 27.688 67.0878 28.12C67.1838 28.528 67.3398 28.732 67.5558 28.732C67.8198 28.732 68.1558 28.396 68.5638 27.724C68.6598 27.532 68.8038 27.436 68.9958 27.436C69.2118 27.436 69.3198 27.544 69.3198 27.76C69.3198 28.072 69.1038 28.408 68.6718 28.768C68.2398 29.104 67.8078 29.272 67.3758 29.272C66.7998 29.272 66.3918 29.032 66.1518 28.552C65.7438 27.76 65.5398 27.052 65.5398 26.428C65.5398 25.78 65.5278 25.336 65.5038 25.096C65.3838 25.384 65.1558 25.84 64.8198 26.464C64.4838 27.064 64.0878 27.7 63.6318 28.372C63.1758 29.02 62.6958 29.572 62.1918 30.028C61.6878 30.484 61.2198 30.712 60.7878 30.712ZM74.4928 36.724C74.1808 36.724 73.8808 36.604 73.5928 36.364C73.3288 36.124 73.1008 35.884 72.9088 35.644C72.1408 34.756 71.4928 33.58 70.9648 32.116C70.4608 30.652 70.0768 29.044 69.8128 27.292C69.5488 25.516 69.4168 23.716 69.4168 21.892C69.4168 20.188 69.5248 18.532 69.7408 16.924C69.9808 15.316 70.3408 13.852 70.8208 12.532C71.3008 11.212 71.9008 10.156 72.6208 9.364C73.5568 8.308 74.4568 7.78 75.3208 7.78C75.8488 7.78 76.2688 8.02 76.5808 8.5C76.9168 8.956 77.0848 9.688 77.0848 10.696C77.0848 11.656 76.8928 12.88 76.5088 14.368C76.1488 15.832 75.5248 17.584 74.6368 19.624C74.3248 20.296 73.9888 20.968 73.6288 21.64C73.2928 22.312 72.9328 23.02 72.5488 23.764C72.4048 24.052 72.2848 24.196 72.1888 24.196C72.1408 24.196 72.1168 24.148 72.1168 24.052C72.1168 23.86 72.2008 23.608 72.3688 23.296C74.5528 19.192 75.6448 15.112 75.6448 11.056C75.6448 9.448 75.3088 8.644 74.6368 8.644C74.1568 8.644 73.5928 9.112 72.9448 10.048C72.0568 11.368 71.4448 12.94 71.1088 14.764C70.7728 16.564 70.6048 18.388 70.6048 20.236C70.6048 21.628 70.6648 22.984 70.7848 24.304C70.9048 25.6 71.0488 26.776 71.2168 27.832C71.2888 28.288 71.3968 28.9 71.5408 29.668C71.6848 30.436 71.8768 31.24 72.1168 32.08C72.3568 32.944 72.6208 33.724 72.9088 34.42C73.2208 35.14 73.5568 35.656 73.9168 35.968C74.0128 36.04 74.1088 36.112 74.2048 36.184C74.3248 36.28 74.4568 36.34 74.6008 36.364C74.8168 36.364 74.9248 36.424 74.9248 36.544C74.9248 36.664 74.7808 36.724 74.4928 36.724ZM80.5397 36.724C80.2277 36.724 79.9277 36.604 79.6397 36.364C79.3757 36.124 79.1477 35.884 78.9557 35.644C78.1877 34.756 77.5397 33.58 77.0117 32.116C76.5077 30.652 76.1237 29.044 75.8597 27.292C75.5957 25.516 75.4637 23.716 75.4637 21.892C75.4637 20.188 75.5717 18.532 75.7877 16.924C76.0277 15.316 76.3877 13.852 76.8677 12.532C77.3477 11.212 77.9477 10.156 78.6677 9.364C79.6037 8.308 80.5037 7.78 81.3677 7.78C81.8957 7.78 82.3157 8.02 82.6277 8.5C82.9637 8.956 83.1317 9.688 83.1317 10.696C83.1317 11.656 82.9397 12.88 82.5557 14.368C82.1957 15.832 81.5717 17.584 80.6837 19.624C80.3717 20.296 80.0357 20.968 79.6757 21.64C79.3397 22.312 78.9797 23.02 78.5957 23.764C78.4517 24.052 78.3317 24.196 78.2357 24.196C78.1877 24.196 78.1637 24.148 78.1637 24.052C78.1637 23.86 78.2477 23.608 78.4157 23.296C80.5997 19.192 81.6917 15.112 81.6917 11.056C81.6917 9.448 81.3557 8.644 80.6837 8.644C80.2037 8.644 79.6397 9.112 78.9917 10.048C78.1037 11.368 77.4917 12.94 77.1557 14.764C76.8197 16.564 76.6517 18.388 76.6517 20.236C76.6517 21.628 76.7117 22.984 76.8317 24.304C76.9517 25.6 77.0957 26.776 77.2637 27.832C77.3357 28.288 77.4437 28.9 77.5877 29.668C77.7317 30.436 77.9237 31.24 78.1637 32.08C78.4037 32.944 78.6677 33.724 78.9557 34.42C79.2677 35.14 79.6037 35.656 79.9637 35.968C80.0597 36.04 80.1557 36.112 80.2517 36.184C80.3717 36.28 80.5037 36.34 80.6477 36.364C80.8637 36.364 80.9717 36.424 80.9717 36.544C80.9717 36.664 80.8277 36.724 80.5397 36.724ZM81.4026 45.148C80.4666 45.148 79.7106 44.896 79.1346 44.392C78.5586 43.912 78.2706 43.264 78.2706 42.448C78.2706 41.728 78.4746 41.008 78.8826 40.288C79.2666 39.592 79.7466 38.92 80.3226 38.272C80.9226 37.648 81.5226 37.096 82.1226 36.616C83.1786 35.776 84.4266 34.984 85.8666 34.24C87.3306 33.496 88.9746 32.932 90.7986 32.548C90.8226 32.284 90.8346 32.008 90.8346 31.72C90.8346 31.456 90.8346 31.192 90.8346 30.928C90.8346 28.984 90.7026 27.22 90.4386 25.636C90.1746 24.028 89.8746 22.648 89.5386 21.496C88.5786 23.872 87.7266 25.852 86.9826 27.436C86.2386 28.996 85.8306 30.304 85.7586 31.36C85.7346 31.528 85.6266 31.708 85.4346 31.9C85.2666 32.116 85.0746 32.224 84.8586 32.224C84.7146 32.224 84.5706 32.14 84.4266 31.972C84.3066 31.828 84.2226 31.564 84.1746 31.18C84.1746 31.084 84.1626 30.952 84.1386 30.784C84.1386 30.616 84.1386 30.316 84.1386 29.884C84.1386 29.452 84.1386 28.804 84.1386 27.94C84.1386 27.172 84.1146 26.392 84.0666 25.6C84.0426 24.784 83.9586 24.028 83.8146 23.332C83.6706 22.636 83.4546 22.072 83.1666 21.64C82.9026 21.208 82.5306 20.992 82.0506 20.992C81.6666 20.992 81.3066 21.136 80.9706 21.424C80.6586 21.712 80.3946 22 80.1786 22.288C79.9626 22.552 79.7946 22.684 79.6746 22.684C79.5786 22.684 79.5306 22.648 79.5306 22.576C79.5306 22.528 79.5666 22.456 79.6386 22.36C79.6866 22.24 79.7346 22.144 79.7826 22.072C79.9986 21.76 80.2746 21.448 80.6106 21.136C80.9706 20.824 81.3426 20.56 81.7266 20.344C82.1346 20.104 82.4946 19.984 82.8066 19.984C83.4546 19.984 83.9586 20.32 84.3186 20.992C84.6786 21.64 84.9306 22.468 85.0746 23.476C85.2426 24.484 85.3266 25.516 85.3266 26.572C85.3266 27.028 85.3026 27.58 85.2546 28.228C85.2066 28.876 85.1466 29.428 85.0746 29.884C85.5546 28.996 86.1666 27.76 86.9106 26.176C87.6546 24.592 88.4706 22.804 89.3586 20.812L89.0346 19.876V19.768C89.0346 19.528 89.1066 19.348 89.2506 19.228C89.4186 19.108 89.5866 19.048 89.7546 19.048C89.8986 19.048 90.0426 19.084 90.1866 19.156C90.3306 19.228 90.4266 19.336 90.4746 19.48C90.7626 20.128 91.0026 21.016 91.1946 22.144C91.4106 23.272 91.5666 24.496 91.6626 25.816C91.7826 27.112 91.8426 28.396 91.8426 29.668C91.8426 30.628 91.8066 31.528 91.7346 32.368C92.3346 32.248 92.9706 32.152 93.6426 32.08C94.3386 32.008 94.9386 31.972 95.4426 31.972C95.7546 31.972 95.9106 32.02 95.9106 32.116C95.9106 32.308 95.6586 32.428 95.1546 32.476C94.5786 32.524 93.9906 32.584 93.3906 32.656C92.8146 32.752 92.2266 32.872 91.6266 33.016C91.1226 35.776 90.3306 37.984 89.2506 39.64C88.1946 41.32 87.1026 42.58 85.9746 43.42C85.1586 44.02 84.3546 44.452 83.5626 44.716C82.7946 45.004 82.0746 45.148 81.4026 45.148ZM81.1146 44.392C81.5226 44.392 81.9906 44.308 82.5186 44.14C83.0706 43.972 83.6466 43.708 84.2466 43.348C86.1666 42.22 87.6546 40.792 88.7106 39.064C89.7666 37.36 90.4386 35.416 90.7266 33.232C89.3106 33.616 87.8826 34.168 86.4426 34.888C85.0266 35.632 83.7306 36.496 82.5546 37.48C82.0266 37.936 81.4986 38.452 80.9706 39.028C80.4666 39.604 80.0466 40.192 79.7106 40.792C79.3746 41.416 79.2066 42.016 79.2066 42.592C79.2066 43.144 79.3746 43.576 79.7106 43.888C80.0466 44.224 80.5146 44.392 81.1146 44.392Z" fill="#FFA3A3"/>
<path d="M8.76073 33.212C8.49673 33.212 8.28073 33.128 8.11273 32.96C7.92073 32.816 7.82473 32.612 7.82473 32.348C7.82473 32.012 7.99273 31.616 8.32873 31.16C8.64073 30.704 9.16873 30.2 9.91273 29.648C10.0327 29.336 10.1167 29.048 10.1647 28.784C10.2367 28.52 10.2967 28.232 10.3447 27.92C10.5127 26.864 10.8127 25.796 11.2447 24.716C11.6767 23.612 12.1087 22.58 12.5407 21.62C12.0847 21.524 11.6287 21.164 11.1727 20.54C10.7407 19.916 10.5247 19.256 10.5247 18.56C10.5247 18.392 10.5607 18.116 10.6327 17.732C10.7047 17.324 10.8247 17.12 10.9927 17.12C11.2087 17.12 11.3167 17.3 11.3167 17.66C11.3167 18.02 11.3167 18.272 11.3167 18.416C11.3167 18.92 11.4607 19.424 11.7487 19.928C12.0367 20.432 12.3847 20.792 12.7927 21.008C13.2007 20.12 13.7167 19.076 14.3407 17.876C14.9647 16.652 15.6727 15.368 16.4647 14.024C17.2567 12.656 18.1207 11.324 19.0567 10.028C19.9927 8.732 20.9767 7.556 22.0087 6.5C23.0647 5.444 24.1567 4.604 25.2847 3.98C26.4127 3.356 27.5647 3.044 28.7407 3.044C29.7007 3.044 30.3967 3.296 30.8287 3.8C31.2607 4.28 31.4767 4.94 31.4767 5.78C31.4767 6.668 31.2607 7.688 30.8287 8.84C30.3967 9.992 29.7847 11.192 28.9927 12.44C28.2247 13.664 27.3247 14.864 26.2927 16.04C25.2607 17.192 24.1327 18.248 22.9087 19.208C21.6847 20.144 20.4127 20.888 19.0927 21.44C17.7727 21.992 16.4527 22.268 15.1327 22.268C14.8687 22.268 14.6047 22.256 14.3407 22.232C14.0767 22.184 13.8247 22.112 13.5847 22.016C13.1047 23.144 12.6607 24.272 12.2527 25.4C11.8447 26.528 11.5207 27.704 11.2807 28.928C13.1287 27.8 15.1327 26.984 17.2927 26.48C19.4527 25.976 21.6127 25.724 23.7727 25.724C24.3487 25.724 25.0087 25.832 25.7527 26.048C26.4967 26.24 27.1327 26.552 27.6607 26.984C28.2127 27.416 28.4887 28.004 28.4887 28.748C28.4887 29.348 28.4287 29.648 28.3087 29.648C28.1887 29.648 28.0447 29.432 27.8767 29C27.5407 28.136 27.0127 27.596 26.2927 27.38C25.5727 27.14 24.7807 27.02 23.9167 27.02C22.4527 27.02 21.1927 27.092 20.1367 27.236C19.1047 27.356 18.1447 27.548 17.2567 27.812C16.3927 28.076 15.4927 28.4 14.5567 28.784C13.6207 29.168 12.5167 29.612 11.2447 30.116C11.0527 31.22 10.6927 32.012 10.1647 32.492C9.66073 32.972 9.19273 33.212 8.76073 33.212ZM14.9527 21.62C16.2247 21.62 17.4847 21.344 18.7327 20.792C20.0047 20.216 21.2167 19.46 22.3687 18.524C23.5447 17.564 24.6247 16.508 25.6087 15.356C26.5927 14.204 27.4447 13.04 28.1647 11.864C28.9087 10.664 29.4847 9.536 29.8927 8.48C30.3007 7.4 30.5047 6.488 30.5047 5.744C30.5047 5.192 30.3727 4.76 30.1087 4.448C29.8687 4.136 29.4847 3.98 28.9567 3.98C28.0687 3.98 27.1327 4.292 26.1487 4.916C25.1887 5.54 24.2047 6.38 23.1967 7.436C22.1887 8.492 21.2047 9.656 20.2447 10.928C19.3087 12.2 18.4207 13.496 17.5807 14.816C16.7647 16.112 16.0327 17.348 15.3847 18.524C14.7367 19.676 14.2327 20.648 13.8727 21.44C13.9927 21.512 14.1727 21.56 14.4127 21.584C14.6527 21.608 14.8327 21.62 14.9527 21.62ZM32.9719 16.976C32.7559 16.976 32.5999 16.868 32.5039 16.652C32.4319 16.412 32.3959 16.244 32.3959 16.148C32.3959 15.764 32.5039 15.404 32.7199 15.068C32.9599 14.708 33.2239 14.516 33.5119 14.492H33.6199C33.9079 14.492 34.0999 14.564 34.1959 14.708C34.3159 14.828 34.3759 14.984 34.3759 15.176C34.3759 15.536 34.2199 15.932 33.9079 16.364C33.5959 16.772 33.2839 16.976 32.9719 16.976ZM31.1359 29.864C30.3199 29.864 29.7679 29.552 29.4799 28.928C29.1919 28.304 29.0479 27.584 29.0479 26.768C29.0479 25.952 29.1319 25.1 29.2999 24.212C29.4919 23.3 29.6959 22.472 29.9119 21.728C30.1519 20.984 30.3319 20.456 30.4519 20.144C30.7159 19.592 30.9799 19.124 31.2439 18.74C31.5079 18.332 31.7959 18.128 32.1079 18.128C32.3239 18.128 32.4799 18.212 32.5759 18.38C32.6959 18.524 32.7559 18.716 32.7559 18.956C32.7559 19.436 32.6239 19.928 32.3599 20.432C32.0959 20.912 31.8559 21.368 31.6399 21.8C31.1599 22.784 30.7759 23.66 30.4879 24.428C30.2239 25.196 30.0919 26.156 30.0919 27.308C30.0919 28.052 30.1639 28.592 30.3079 28.928C30.4759 29.264 30.7039 29.432 30.9919 29.432C31.3759 29.432 31.8199 29.216 32.3239 28.784C32.8279 28.328 33.3439 27.728 33.8719 26.984C34.3999 26.24 34.8679 25.436 35.2759 24.572C35.5399 24.02 35.7439 23.744 35.8879 23.744C35.9839 23.744 36.0319 23.84 36.0319 24.032C36.0319 24.296 35.9239 24.68 35.7079 25.184C35.5159 25.664 35.2759 26.156 34.9879 26.66C34.7239 27.164 34.4719 27.56 34.2319 27.848C33.8239 28.376 33.3559 28.844 32.8279 29.252C32.2999 29.66 31.7359 29.864 31.1359 29.864ZM38.2301 34.76C37.9901 34.76 37.7381 34.604 37.4741 34.292C37.2341 34.004 37.0061 33.596 36.7901 33.068C36.4301 32.204 36.1781 31.292 36.0341 30.332C35.8901 29.396 35.8181 28.448 35.8181 27.488C35.8181 26.432 35.8901 25.4 36.0341 24.392C36.1781 23.384 36.3341 22.472 36.5021 21.656C36.6221 21.08 36.7661 20.468 36.9341 19.82C37.1021 19.172 37.2581 18.656 37.4021 18.272C37.2581 18.296 37.0301 18.38 36.7181 18.524C36.4061 18.668 36.0821 18.812 35.7461 18.956C35.4341 19.1 35.1581 19.172 34.9181 19.172C34.5581 19.172 34.3781 18.968 34.3781 18.56C34.3781 18.344 34.4501 18.152 34.5941 17.984C34.7621 17.816 34.9661 17.684 35.2061 17.588C35.6861 17.372 36.2141 17.216 36.7901 17.12C37.3661 17 37.7501 16.88 37.9421 16.76L38.8781 14.384C38.9741 14.144 39.1421 13.76 39.3821 13.232C39.6461 12.68 39.9461 12.092 40.2821 11.468C40.6421 10.844 40.9901 10.28 41.3261 9.776C41.5901 9.392 41.8421 9.092 42.0821 8.876C42.3221 8.636 42.5861 8.516 42.8741 8.516C43.3061 8.516 43.5221 8.684 43.5221 9.02C43.5221 9.212 43.4381 9.5 43.2701 9.884C43.1261 10.268 42.8501 10.772 42.4421 11.396C41.9861 12.116 41.5181 12.836 41.0381 13.556C40.5821 14.252 40.1861 14.984 39.8501 15.752C39.8261 15.848 39.7661 16.004 39.6701 16.22C39.5981 16.412 39.5381 16.532 39.4901 16.58L40.2101 16.472C40.4021 16.448 40.6181 16.436 40.8581 16.436C41.0981 16.412 41.3621 16.4 41.6501 16.4C42.0581 16.4 42.4421 16.424 42.8021 16.472C43.1861 16.496 43.4981 16.556 43.7381 16.652C43.8581 16.7 43.9661 16.76 44.0621 16.832C44.1821 16.88 44.2421 16.928 44.2421 16.976C44.2421 17.072 43.9301 17.12 43.3061 17.12C42.9461 17.12 42.4301 17.18 41.7581 17.3C41.1101 17.42 40.3661 17.612 39.5261 17.876C39.1181 17.996 38.8421 18.164 38.6981 18.38C38.5541 18.596 38.3621 19.112 38.1221 19.928C37.7621 21.224 37.4741 22.472 37.2581 23.672C37.0421 24.848 36.8741 26.048 36.7541 27.272C36.7301 27.512 36.7061 27.764 36.6821 28.028C36.6821 28.292 36.6821 28.58 36.6821 28.892C36.6821 29.708 36.7541 30.56 36.8981 31.448C37.0661 32.336 37.3061 33.104 37.6181 33.752C37.6901 33.896 37.7621 34.028 37.8341 34.148C37.9301 34.268 38.0381 34.352 38.1581 34.4C38.3261 34.472 38.4101 34.556 38.4101 34.652C38.4101 34.724 38.3501 34.76 38.2301 34.76ZM44.349 29.468C43.485 29.468 42.729 28.964 42.081 27.956C41.457 26.924 41.145 25.304 41.145 23.096C41.145 21.656 41.325 20.504 41.685 19.64C42.045 18.752 42.489 18.104 43.017 17.696C43.545 17.288 44.049 17.084 44.529 17.084C45.009 17.084 45.417 17.252 45.753 17.588C46.089 17.9 46.257 18.356 46.257 18.956C46.257 19.532 46.089 20.144 45.753 20.792C45.417 21.416 45.009 21.992 44.529 22.52C44.073 23.024 43.617 23.36 43.161 23.528C43.065 23.576 42.945 23.6 42.801 23.6C42.705 23.6 42.657 23.564 42.657 23.492C42.657 23.3 42.849 23.084 43.233 22.844C43.713 22.508 44.169 22.004 44.601 21.332C45.033 20.636 45.249 20.024 45.249 19.496C45.249 19.184 45.177 18.944 45.033 18.776C44.889 18.584 44.721 18.488 44.529 18.488C44.169 18.488 43.773 18.776 43.341 19.352C42.933 19.904 42.633 20.864 42.441 22.232C42.393 22.616 42.345 22.988 42.297 23.348C42.273 23.684 42.261 24.02 42.261 24.356C42.261 25.7 42.465 26.756 42.873 27.524C43.281 28.268 43.821 28.64 44.493 28.64C45.069 28.64 45.717 28.304 46.437 27.632C47.157 26.936 47.865 25.856 48.561 24.392C48.729 24.008 48.921 23.816 49.137 23.816C49.281 23.816 49.353 23.912 49.353 24.104C49.353 24.272 49.305 24.452 49.209 24.644C48.585 26.18 47.829 27.368 46.941 28.208C46.053 29.048 45.189 29.468 44.349 29.468ZM53.0697 30.8C52.3017 30.8 51.7137 30.44 51.3057 29.72C50.8977 29.024 50.6937 28.256 50.6937 27.416C50.6937 26.624 50.8257 25.796 51.0897 24.932C51.3537 24.068 51.6777 23.216 52.0617 22.376C52.4697 21.536 52.8897 20.768 53.3217 20.072C52.8897 20.24 52.4817 20.324 52.0977 20.324C51.9057 20.324 51.7377 20.3 51.5937 20.252C51.4497 20.204 51.3297 20.168 51.2337 20.144C51.1137 20.432 50.8977 20.912 50.5857 21.584C50.2977 22.256 49.9857 22.964 49.6497 23.708C49.3377 24.428 49.0617 25.04 48.8217 25.544C48.4377 26.36 48.1017 26.768 47.8137 26.768C47.6697 26.768 47.5977 26.672 47.5977 26.48C47.5977 26.336 47.6577 26.144 47.7777 25.904C48.3297 24.872 48.8457 23.852 49.3257 22.844C49.8297 21.836 50.2857 20.864 50.6937 19.928C50.6457 19.808 50.5977 19.652 50.5497 19.46C50.5017 19.244 50.4777 19.016 50.4777 18.776C50.4777 18.512 50.5017 18.236 50.5497 17.948C50.6217 17.636 50.7177 17.336 50.8377 17.048C50.9097 16.88 51.0417 16.64 51.2337 16.328C51.4257 15.992 51.6417 15.692 51.8817 15.428C52.1217 15.14 52.3497 14.996 52.5657 14.996C52.9737 14.996 53.1777 15.212 53.1777 15.644C53.1777 16.052 53.0457 16.52 52.7817 17.048C52.5417 17.576 52.2897 18.068 52.0257 18.524C51.7617 18.956 51.6297 19.28 51.6297 19.496C51.6297 19.688 51.7257 19.784 51.9177 19.784C52.1817 19.784 52.5057 19.652 52.8897 19.388C53.2977 19.1 53.6217 18.836 53.8617 18.596C53.9817 18.476 54.1737 18.296 54.4377 18.056C54.7017 17.792 54.9537 17.66 55.1937 17.66C55.4337 17.66 55.5897 17.732 55.6617 17.876C55.7577 18.02 55.8057 18.188 55.8057 18.38C55.8057 18.596 55.7097 18.872 55.5177 19.208C55.3257 19.52 55.0977 19.832 54.8337 20.144C54.5937 20.456 54.3897 20.72 54.2217 20.936C53.8857 21.44 53.5017 22.076 53.0697 22.844C52.6377 23.612 52.2657 24.44 51.9537 25.328C51.6417 26.192 51.4857 27.02 51.4857 27.812C51.4857 28.34 51.6177 28.892 51.8817 29.468C52.1457 30.044 52.5057 30.332 52.9617 30.332C53.3697 30.332 53.8017 30.116 54.2577 29.684C54.7377 29.252 55.1817 28.736 55.5897 28.136C56.0217 27.536 56.3937 26.96 56.7057 26.408C57.0417 25.856 57.2697 25.472 57.3897 25.256C57.4377 25.136 57.5217 24.992 57.6417 24.824C57.7617 24.632 57.9057 24.536 58.0737 24.536C58.2177 24.536 58.2897 24.608 58.2897 24.752C58.2897 24.872 58.2537 25.016 58.1817 25.184C58.1337 25.328 58.0857 25.46 58.0377 25.58C57.8217 26.084 57.5577 26.612 57.2457 27.164C56.9337 27.716 56.7177 28.088 56.5977 28.28C56.2617 28.832 55.7577 29.384 55.0857 29.936C54.4377 30.512 53.7657 30.8 53.0697 30.8ZM58.7878 28.712C58.3558 28.712 58.0438 28.532 57.8518 28.172C57.6598 27.788 57.5638 27.344 57.5638 26.84C57.5638 26.192 57.6718 25.436 57.8878 24.572C58.1278 23.708 58.4398 22.82 58.8238 21.908C59.2078 20.972 59.6398 20.12 60.1198 19.352C60.6238 18.56 61.1518 17.924 61.7038 17.444C62.2558 16.94 62.7958 16.688 63.3238 16.688C63.8038 16.688 64.2118 16.904 64.5478 17.336C64.9078 17.744 65.0878 18.212 65.0878 18.74C65.0878 19.052 65.0398 19.316 64.9438 19.532C64.8478 19.724 64.7398 19.82 64.6198 19.82C64.5238 19.82 64.4398 19.748 64.3678 19.604C64.1278 19.052 63.8638 18.656 63.5758 18.416C63.3118 18.176 63.0358 18.056 62.7478 18.056C62.2678 18.056 61.7878 18.332 61.3078 18.884C60.8518 19.412 60.4798 20.024 60.1918 20.72C59.9518 21.248 59.7238 21.884 59.5078 22.628C59.3158 23.348 59.1478 24.068 59.0038 24.788C58.8838 25.484 58.8238 26.06 58.8238 26.516C58.8238 27.332 59.0158 27.74 59.3998 27.74C59.8798 27.74 60.4918 27.212 61.2358 26.156C61.7878 25.388 62.2798 24.5 62.7118 23.492C63.1678 22.484 63.5518 21.608 63.8638 20.864C63.9838 20.624 64.1158 20.468 64.2598 20.396C64.4038 20.324 64.5358 20.288 64.6558 20.288C64.9438 20.288 65.1238 20.408 65.1958 20.648C65.2918 20.888 65.3398 21.092 65.3398 21.26C65.3398 21.884 65.2798 22.448 65.1598 22.952C65.0398 23.432 64.9798 24.02 64.9798 24.716C64.9798 25.22 65.0158 25.688 65.0878 26.12C65.1838 26.528 65.3398 26.732 65.5558 26.732C65.8198 26.732 66.1558 26.396 66.5638 25.724C66.6598 25.532 66.8038 25.436 66.9958 25.436C67.2118 25.436 67.3198 25.544 67.3198 25.76C67.3198 26.072 67.1038 26.408 66.6718 26.768C66.2398 27.104 65.8078 27.272 65.3758 27.272C64.7998 27.272 64.3918 27.032 64.1518 26.552C63.7438 25.76 63.5398 25.052 63.5398 24.428C63.5398 23.78 63.5278 23.336 63.5038 23.096C63.3838 23.384 63.1558 23.84 62.8198 24.464C62.4838 25.064 62.0878 25.7 61.6318 26.372C61.1758 27.02 60.6958 27.572 60.1918 28.028C59.6878 28.484 59.2198 28.712 58.7878 28.712ZM72.4928 34.724C72.1808 34.724 71.8808 34.604 71.5928 34.364C71.3288 34.124 71.1008 33.884 70.9088 33.644C70.1408 32.756 69.4928 31.58 68.9648 30.116C68.4608 28.652 68.0768 27.044 67.8128 25.292C67.5488 23.516 67.4168 21.716 67.4168 19.892C67.4168 18.188 67.5248 16.532 67.7408 14.924C67.9808 13.316 68.3408 11.852 68.8208 10.532C69.3008 9.212 69.9008 8.156 70.6208 7.364C71.5568 6.308 72.4568 5.78 73.3208 5.78C73.8488 5.78 74.2688 6.02 74.5808 6.5C74.9168 6.956 75.0848 7.688 75.0848 8.696C75.0848 9.656 74.8928 10.88 74.5088 12.368C74.1488 13.832 73.5248 15.584 72.6368 17.624C72.3248 18.296 71.9888 18.968 71.6288 19.64C71.2928 20.312 70.9328 21.02 70.5488 21.764C70.4048 22.052 70.2848 22.196 70.1888 22.196C70.1408 22.196 70.1168 22.148 70.1168 22.052C70.1168 21.86 70.2008 21.608 70.3688 21.296C72.5528 17.192 73.6448 13.112 73.6448 9.056C73.6448 7.448 73.3088 6.644 72.6368 6.644C72.1568 6.644 71.5928 7.112 70.9448 8.048C70.0568 9.368 69.4448 10.94 69.1088 12.764C68.7728 14.564 68.6048 16.388 68.6048 18.236C68.6048 19.628 68.6648 20.984 68.7848 22.304C68.9048 23.6 69.0488 24.776 69.2168 25.832C69.2888 26.288 69.3968 26.9 69.5408 27.668C69.6848 28.436 69.8768 29.24 70.1168 30.08C70.3568 30.944 70.6208 31.724 70.9088 32.42C71.2208 33.14 71.5568 33.656 71.9168 33.968C72.0128 34.04 72.1088 34.112 72.2048 34.184C72.3248 34.28 72.4568 34.34 72.6008 34.364C72.8168 34.364 72.9248 34.424 72.9248 34.544C72.9248 34.664 72.7808 34.724 72.4928 34.724ZM78.5397 34.724C78.2277 34.724 77.9277 34.604 77.6397 34.364C77.3757 34.124 77.1477 33.884 76.9557 33.644C76.1877 32.756 75.5397 31.58 75.0117 30.116C74.5077 28.652 74.1237 27.044 73.8597 25.292C73.5957 23.516 73.4637 21.716 73.4637 19.892C73.4637 18.188 73.5717 16.532 73.7877 14.924C74.0277 13.316 74.3877 11.852 74.8677 10.532C75.3477 9.212 75.9477 8.156 76.6677 7.364C77.6037 6.308 78.5037 5.78 79.3677 5.78C79.8957 5.78 80.3157 6.02 80.6277 6.5C80.9637 6.956 81.1317 7.688 81.1317 8.696C81.1317 9.656 80.9397 10.88 80.5557 12.368C80.1957 13.832 79.5717 15.584 78.6837 17.624C78.3717 18.296 78.0357 18.968 77.6757 19.64C77.3397 20.312 76.9797 21.02 76.5957 21.764C76.4517 22.052 76.3317 22.196 76.2357 22.196C76.1877 22.196 76.1637 22.148 76.1637 22.052C76.1637 21.86 76.2477 21.608 76.4157 21.296C78.5997 17.192 79.6917 13.112 79.6917 9.056C79.6917 7.448 79.3557 6.644 78.6837 6.644C78.2037 6.644 77.6397 7.112 76.9917 8.048C76.1037 9.368 75.4917 10.94 75.1557 12.764C74.8197 14.564 74.6517 16.388 74.6517 18.236C74.6517 19.628 74.7117 20.984 74.8317 22.304C74.9517 23.6 75.0957 24.776 75.2637 25.832C75.3357 26.288 75.4437 26.9 75.5877 27.668C75.7317 28.436 75.9237 29.24 76.1637 30.08C76.4037 30.944 76.6677 31.724 76.9557 32.42C77.2677 33.14 77.6037 33.656 77.9637 33.968C78.0597 34.04 78.1557 34.112 78.2517 34.184C78.3717 34.28 78.5037 34.34 78.6477 34.364C78.8637 34.364 78.9717 34.424 78.9717 34.544C78.9717 34.664 78.8277 34.724 78.5397 34.724ZM79.4026 43.148C78.4666 43.148 77.7106 42.896 77.1346 42.392C76.5586 41.912 76.2706 41.264 76.2706 40.448C76.2706 39.728 76.4746 39.008 76.8826 38.288C77.2666 37.592 77.7466 36.92 78.3226 36.272C78.9226 35.648 79.5226 35.096 80.1226 34.616C81.1786 33.776 82.4266 32.984 83.8666 32.24C85.3306 31.496 86.9746 30.932 88.7986 30.548C88.8226 30.284 88.8346 30.008 88.8346 29.72C88.8346 29.456 88.8346 29.192 88.8346 28.928C88.8346 26.984 88.7026 25.22 88.4386 23.636C88.1746 22.028 87.8746 20.648 87.5386 19.496C86.5786 21.872 85.7266 23.852 84.9826 25.436C84.2386 26.996 83.8306 28.304 83.7586 29.36C83.7346 29.528 83.6266 29.708 83.4346 29.9C83.2666 30.116 83.0746 30.224 82.8586 30.224C82.7146 30.224 82.5706 30.14 82.4266 29.972C82.3066 29.828 82.2226 29.564 82.1746 29.18C82.1746 29.084 82.1626 28.952 82.1386 28.784C82.1386 28.616 82.1386 28.316 82.1386 27.884C82.1386 27.452 82.1386 26.804 82.1386 25.94C82.1386 25.172 82.1146 24.392 82.0666 23.6C82.0426 22.784 81.9586 22.028 81.8146 21.332C81.6706 20.636 81.4546 20.072 81.1666 19.64C80.9026 19.208 80.5306 18.992 80.0506 18.992C79.6666 18.992 79.3066 19.136 78.9706 19.424C78.6586 19.712 78.3946 20 78.1786 20.288C77.9626 20.552 77.7946 20.684 77.6746 20.684C77.5786 20.684 77.5306 20.648 77.5306 20.576C77.5306 20.528 77.5666 20.456 77.6386 20.36C77.6866 20.24 77.7346 20.144 77.7826 20.072C77.9986 19.76 78.2746 19.448 78.6106 19.136C78.9706 18.824 79.3426 18.56 79.7266 18.344C80.1346 18.104 80.4946 17.984 80.8066 17.984C81.4546 17.984 81.9586 18.32 82.3186 18.992C82.6786 19.64 82.9306 20.468 83.0746 21.476C83.2426 22.484 83.3266 23.516 83.3266 24.572C83.3266 25.028 83.3026 25.58 83.2546 26.228C83.2066 26.876 83.1466 27.428 83.0746 27.884C83.5546 26.996 84.1666 25.76 84.9106 24.176C85.6546 22.592 86.4706 20.804 87.3586 18.812L87.0346 17.876V17.768C87.0346 17.528 87.1066 17.348 87.2506 17.228C87.4186 17.108 87.5866 17.048 87.7546 17.048C87.8986 17.048 88.0426 17.084 88.1866 17.156C88.3306 17.228 88.4266 17.336 88.4746 17.48C88.7626 18.128 89.0026 19.016 89.1946 20.144C89.4106 21.272 89.5666 22.496 89.6626 23.816C89.7826 25.112 89.8426 26.396 89.8426 27.668C89.8426 28.628 89.8066 29.528 89.7346 30.368C90.3346 30.248 90.9706 30.152 91.6426 30.08C92.3386 30.008 92.9386 29.972 93.4426 29.972C93.7546 29.972 93.9106 30.02 93.9106 30.116C93.9106 30.308 93.6586 30.428 93.1546 30.476C92.5786 30.524 91.9906 30.584 91.3906 30.656C90.8146 30.752 90.2266 30.872 89.6266 31.016C89.1226 33.776 88.3306 35.984 87.2506 37.64C86.1946 39.32 85.1026 40.58 83.9746 41.42C83.1586 42.02 82.3546 42.452 81.5626 42.716C80.7946 43.004 80.0746 43.148 79.4026 43.148ZM79.1146 42.392C79.5226 42.392 79.9906 42.308 80.5186 42.14C81.0706 41.972 81.6466 41.708 82.2466 41.348C84.1666 40.22 85.6546 38.792 86.7106 37.064C87.7666 35.36 88.4386 33.416 88.7266 31.232C87.3106 31.616 85.8826 32.168 84.4426 32.888C83.0266 33.632 81.7306 34.496 80.5546 35.48C80.0266 35.936 79.4986 36.452 78.9706 37.028C78.4666 37.604 78.0466 38.192 77.7106 38.792C77.3746 39.416 77.2066 40.016 77.2066 40.592C77.2066 41.144 77.3746 41.576 77.7106 41.888C78.0466 42.224 78.5146 42.392 79.1146 42.392Z" fill="#BE7339"/>
</svg>
