<svg width="124" height="46" viewBox="0 0 124 46" fill="none" xmlns="http://www.w3.org/2000/svg">
<path d="M21.7607 35.212C21.4967 35.212 21.2807 35.128 21.1127 34.96C20.9207 34.816 20.8247 34.612 20.8247 34.348C20.8247 34.012 20.9927 33.616 21.3287 33.16C21.6407 32.704 22.1687 32.2 22.9127 31.648C23.0327 31.336 23.1167 31.048 23.1647 30.784C23.2367 30.52 23.2967 30.232 23.3447 29.92C23.5127 28.864 23.8127 27.796 24.2447 26.716C24.6767 25.612 25.1087 24.58 25.5407 23.62C25.0847 23.524 24.6287 23.164 24.1727 22.54C23.7407 21.916 23.5247 21.256 23.5247 20.56C23.5247 20.392 23.5607 20.116 23.6327 19.732C23.7047 19.324 23.8247 19.12 23.9927 19.12C24.2087 19.12 24.3167 19.3 24.3167 19.66C24.3167 20.02 24.3167 20.272 24.3167 20.416C24.3167 20.92 24.4607 21.424 24.7487 21.928C25.0367 22.432 25.3847 22.792 25.7927 23.008C26.2007 22.12 26.7167 21.076 27.3407 19.876C27.9647 18.652 28.6727 17.368 29.4647 16.024C30.2567 14.656 31.1207 13.324 32.0567 12.028C32.9927 10.732 33.9767 9.556 35.0087 8.5C36.0647 7.444 37.1567 6.604 38.2847 5.98C39.4127 5.356 40.5647 5.044 41.7407 5.044C42.7007 5.044 43.3967 5.296 43.8287 5.8C44.2607 6.28 44.4767 6.94 44.4767 7.78C44.4767 8.668 44.2607 9.688 43.8287 10.84C43.3967 11.992 42.7847 13.192 41.9927 14.44C41.2247 15.664 40.3247 16.864 39.2927 18.04C38.2607 19.192 37.1327 20.248 35.9087 21.208C34.6847 22.144 33.4127 22.888 32.0927 23.44C30.7727 23.992 29.4527 24.268 28.1327 24.268C27.8687 24.268 27.6047 24.256 27.3407 24.232C27.0767 24.184 26.8247 24.112 26.5847 24.016C26.1047 25.144 25.6607 26.272 25.2527 27.4C24.8447 28.528 24.5207 29.704 24.2807 30.928C26.1287 29.8 28.1327 28.984 30.2927 28.48C32.4527 27.976 34.6127 27.724 36.7727 27.724C37.3487 27.724 38.0087 27.832 38.7527 28.048C39.4967 28.24 40.1327 28.552 40.6607 28.984C41.2127 29.416 41.4887 30.004 41.4887 30.748C41.4887 31.348 41.4287 31.648 41.3087 31.648C41.1887 31.648 41.0447 31.432 40.8767 31C40.5407 30.136 40.0127 29.596 39.2927 29.38C38.5727 29.14 37.7807 29.02 36.9167 29.02C35.4527 29.02 34.1927 29.092 33.1367 29.236C32.1047 29.356 31.1447 29.548 30.2567 29.812C29.3927 30.076 28.4927 30.4 27.5567 30.784C26.6207 31.168 25.5167 31.612 24.2447 32.116C24.0527 33.22 23.6927 34.012 23.1647 34.492C22.6607 34.972 22.1927 35.212 21.7607 35.212ZM27.9527 23.62C29.2247 23.62 30.4847 23.344 31.7327 22.792C33.0047 22.216 34.2167 21.46 35.3687 20.524C36.5447 19.564 37.6247 18.508 38.6087 17.356C39.5927 16.204 40.4447 15.04 41.1647 13.864C41.9087 12.664 42.4847 11.536 42.8927 10.48C43.3007 9.4 43.5047 8.488 43.5047 7.744C43.5047 7.192 43.3727 6.76 43.1087 6.448C42.8687 6.136 42.4847 5.98 41.9567 5.98C41.0687 5.98 40.1327 6.292 39.1487 6.916C38.1887 7.54 37.2047 8.38 36.1967 9.436C35.1887 10.492 34.2047 11.656 33.2447 12.928C32.3087 14.2 31.4207 15.496 30.5807 16.816C29.7647 18.112 29.0327 19.348 28.3847 20.524C27.7367 21.676 27.2327 22.648 26.8727 23.44C26.9927 23.512 27.1727 23.56 27.4127 23.584C27.6527 23.608 27.8327 23.62 27.9527 23.62ZM45.9719 18.976C45.7559 18.976 45.5999 18.868 45.5039 18.652C45.4319 18.412 45.3959 18.244 45.3959 18.148C45.3959 17.764 45.5039 17.404 45.7199 17.068C45.9599 16.708 46.2239 16.516 46.5119 16.492H46.6199C46.9079 16.492 47.0999 16.564 47.1959 16.708C47.3159 16.828 47.3759 16.984 47.3759 17.176C47.3759 17.536 47.2199 17.932 46.9079 18.364C46.5959 18.772 46.2839 18.976 45.9719 18.976ZM44.1359 31.864C43.3199 31.864 42.7679 31.552 42.4799 30.928C42.1919 30.304 42.0479 29.584 42.0479 28.768C42.0479 27.952 42.1319 27.1 42.2999 26.212C42.4919 25.3 42.6959 24.472 42.9119 23.728C43.1519 22.984 43.3319 22.456 43.4519 22.144C43.7159 21.592 43.9799 21.124 44.2439 20.74C44.5079 20.332 44.7959 20.128 45.1079 20.128C45.3239 20.128 45.4799 20.212 45.5759 20.38C45.6959 20.524 45.7559 20.716 45.7559 20.956C45.7559 21.436 45.6239 21.928 45.3599 22.432C45.0959 22.912 44.8559 23.368 44.6399 23.8C44.1599 24.784 43.7759 25.66 43.4879 26.428C43.2239 27.196 43.0919 28.156 43.0919 29.308C43.0919 30.052 43.1639 30.592 43.3079 30.928C43.4759 31.264 43.7039 31.432 43.9919 31.432C44.3759 31.432 44.8199 31.216 45.3239 30.784C45.8279 30.328 46.3439 29.728 46.8719 28.984C47.3999 28.24 47.8679 27.436 48.2759 26.572C48.5399 26.02 48.7439 25.744 48.8879 25.744C48.9839 25.744 49.0319 25.84 49.0319 26.032C49.0319 26.296 48.9239 26.68 48.7079 27.184C48.5159 27.664 48.2759 28.156 47.9879 28.66C47.7239 29.164 47.4719 29.56 47.2319 29.848C46.8239 30.376 46.3559 30.844 45.8279 31.252C45.2999 31.66 44.7359 31.864 44.1359 31.864ZM51.2301 36.76C50.9901 36.76 50.7381 36.604 50.4741 36.292C50.2341 36.004 50.0061 35.596 49.7901 35.068C49.4301 34.204 49.1781 33.292 49.0341 32.332C48.8901 31.396 48.8181 30.448 48.8181 29.488C48.8181 28.432 48.8901 27.4 49.0341 26.392C49.1781 25.384 49.3341 24.472 49.5021 23.656C49.6221 23.08 49.7661 22.468 49.9341 21.82C50.1021 21.172 50.2581 20.656 50.4021 20.272C50.2581 20.296 50.0301 20.38 49.7181 20.524C49.4061 20.668 49.0821 20.812 48.7461 20.956C48.4341 21.1 48.1581 21.172 47.9181 21.172C47.5581 21.172 47.3781 20.968 47.3781 20.56C47.3781 20.344 47.4501 20.152 47.5941 19.984C47.7621 19.816 47.9661 19.684 48.2061 19.588C48.6861 19.372 49.2141 19.216 49.7901 19.12C50.3661 19 50.7501 18.88 50.9421 18.76L51.8781 16.384C51.9741 16.144 52.1421 15.76 52.3821 15.232C52.6461 14.68 52.9461 14.092 53.2821 13.468C53.6421 12.844 53.9901 12.28 54.3261 11.776C54.5901 11.392 54.8421 11.092 55.0821 10.876C55.3221 10.636 55.5861 10.516 55.8741 10.516C56.3061 10.516 56.5221 10.684 56.5221 11.02C56.5221 11.212 56.4381 11.5 56.2701 11.884C56.1261 12.268 55.8501 12.772 55.4421 13.396C54.9861 14.116 54.5181 14.836 54.0381 15.556C53.5821 16.252 53.1861 16.984 52.8501 17.752C52.8261 17.848 52.7661 18.004 52.6701 18.22C52.5981 18.412 52.5381 18.532 52.4901 18.58L53.2101 18.472C53.4021 18.448 53.6181 18.436 53.8581 18.436C54.0981 18.412 54.3621 18.4 54.6501 18.4C55.0581 18.4 55.4421 18.424 55.8021 18.472C56.1861 18.496 56.4981 18.556 56.7381 18.652C56.8581 18.7 56.9661 18.76 57.0621 18.832C57.1821 18.88 57.2421 18.928 57.2421 18.976C57.2421 19.072 56.9301 19.12 56.3061 19.12C55.9461 19.12 55.4301 19.18 54.7581 19.3C54.1101 19.42 53.3661 19.612 52.5261 19.876C52.1181 19.996 51.8421 20.164 51.6981 20.38C51.5541 20.596 51.3621 21.112 51.1221 21.928C50.7621 23.224 50.4741 24.472 50.2581 25.672C50.0421 26.848 49.8741 28.048 49.7541 29.272C49.7301 29.512 49.7061 29.764 49.6821 30.028C49.6821 30.292 49.6821 30.58 49.6821 30.892C49.6821 31.708 49.7541 32.56 49.8981 33.448C50.0661 34.336 50.3061 35.104 50.6181 35.752C50.6901 35.896 50.7621 36.028 50.8341 36.148C50.9301 36.268 51.0381 36.352 51.1581 36.4C51.3261 36.472 51.4101 36.556 51.4101 36.652C51.4101 36.724 51.3501 36.76 51.2301 36.76ZM57.349 31.468C56.485 31.468 55.729 30.964 55.081 29.956C54.457 28.924 54.145 27.304 54.145 25.096C54.145 23.656 54.325 22.504 54.685 21.64C55.045 20.752 55.489 20.104 56.017 19.696C56.545 19.288 57.049 19.084 57.529 19.084C58.009 19.084 58.417 19.252 58.753 19.588C59.089 19.9 59.257 20.356 59.257 20.956C59.257 21.532 59.089 22.144 58.753 22.792C58.417 23.416 58.009 23.992 57.529 24.52C57.073 25.024 56.617 25.36 56.161 25.528C56.065 25.576 55.945 25.6 55.801 25.6C55.705 25.6 55.657 25.564 55.657 25.492C55.657 25.3 55.849 25.084 56.233 24.844C56.713 24.508 57.169 24.004 57.601 23.332C58.033 22.636 58.249 22.024 58.249 21.496C58.249 21.184 58.177 20.944 58.033 20.776C57.889 20.584 57.721 20.488 57.529 20.488C57.169 20.488 56.773 20.776 56.341 21.352C55.933 21.904 55.633 22.864 55.441 24.232C55.393 24.616 55.345 24.988 55.297 25.348C55.273 25.684 55.261 26.02 55.261 26.356C55.261 27.7 55.465 28.756 55.873 29.524C56.281 30.268 56.821 30.64 57.493 30.64C58.069 30.64 58.717 30.304 59.437 29.632C60.157 28.936 60.865 27.856 61.561 26.392C61.729 26.008 61.921 25.816 62.137 25.816C62.281 25.816 62.353 25.912 62.353 26.104C62.353 26.272 62.305 26.452 62.209 26.644C61.585 28.18 60.829 29.368 59.941 30.208C59.053 31.048 58.189 31.468 57.349 31.468ZM66.0697 32.8C65.3017 32.8 64.7137 32.44 64.3057 31.72C63.8977 31.024 63.6937 30.256 63.6937 29.416C63.6937 28.624 63.8257 27.796 64.0897 26.932C64.3537 26.068 64.6777 25.216 65.0617 24.376C65.4697 23.536 65.8897 22.768 66.3217 22.072C65.8897 22.24 65.4817 22.324 65.0977 22.324C64.9057 22.324 64.7377 22.3 64.5937 22.252C64.4497 22.204 64.3297 22.168 64.2337 22.144C64.1137 22.432 63.8977 22.912 63.5857 23.584C63.2977 24.256 62.9857 24.964 62.6497 25.708C62.3377 26.428 62.0617 27.04 61.8217 27.544C61.4377 28.36 61.1017 28.768 60.8137 28.768C60.6697 28.768 60.5977 28.672 60.5977 28.48C60.5977 28.336 60.6577 28.144 60.7777 27.904C61.3297 26.872 61.8457 25.852 62.3257 24.844C62.8297 23.836 63.2857 22.864 63.6937 21.928C63.6457 21.808 63.5977 21.652 63.5497 21.46C63.5017 21.244 63.4777 21.016 63.4777 20.776C63.4777 20.512 63.5017 20.236 63.5497 19.948C63.6217 19.636 63.7177 19.336 63.8377 19.048C63.9097 18.88 64.0417 18.64 64.2337 18.328C64.4257 17.992 64.6417 17.692 64.8817 17.428C65.1217 17.14 65.3497 16.996 65.5657 16.996C65.9737 16.996 66.1777 17.212 66.1777 17.644C66.1777 18.052 66.0457 18.52 65.7817 19.048C65.5417 19.576 65.2897 20.068 65.0257 20.524C64.7617 20.956 64.6297 21.28 64.6297 21.496C64.6297 21.688 64.7257 21.784 64.9177 21.784C65.1817 21.784 65.5057 21.652 65.8897 21.388C66.2977 21.1 66.6217 20.836 66.8617 20.596C66.9817 20.476 67.1737 20.296 67.4377 20.056C67.7017 19.792 67.9537 19.66 68.1937 19.66C68.4337 19.66 68.5897 19.732 68.6617 19.876C68.7577 20.02 68.8057 20.188 68.8057 20.38C68.8057 20.596 68.7097 20.872 68.5177 21.208C68.3257 21.52 68.0977 21.832 67.8337 22.144C67.5937 22.456 67.3897 22.72 67.2217 22.936C66.8857 23.44 66.5017 24.076 66.0697 24.844C65.6377 25.612 65.2657 26.44 64.9537 27.328C64.6417 28.192 64.4857 29.02 64.4857 29.812C64.4857 30.34 64.6177 30.892 64.8817 31.468C65.1457 32.044 65.5057 32.332 65.9617 32.332C66.3697 32.332 66.8017 32.116 67.2577 31.684C67.7377 31.252 68.1817 30.736 68.5897 30.136C69.0217 29.536 69.3937 28.96 69.7057 28.408C70.0417 27.856 70.2697 27.472 70.3897 27.256C70.4377 27.136 70.5217 26.992 70.6417 26.824C70.7617 26.632 70.9057 26.536 71.0737 26.536C71.2177 26.536 71.2897 26.608 71.2897 26.752C71.2897 26.872 71.2537 27.016 71.1817 27.184C71.1337 27.328 71.0857 27.46 71.0377 27.58C70.8217 28.084 70.5577 28.612 70.2457 29.164C69.9337 29.716 69.7177 30.088 69.5977 30.28C69.2617 30.832 68.7577 31.384 68.0857 31.936C67.4377 32.512 66.7657 32.8 66.0697 32.8ZM71.7878 30.712C71.3558 30.712 71.0438 30.532 70.8518 30.172C70.6598 29.788 70.5638 29.344 70.5638 28.84C70.5638 28.192 70.6718 27.436 70.8878 26.572C71.1278 25.708 71.4398 24.82 71.8238 23.908C72.2078 22.972 72.6398 22.12 73.1198 21.352C73.6238 20.56 74.1518 19.924 74.7038 19.444C75.2558 18.94 75.7958 18.688 76.3238 18.688C76.8038 18.688 77.2118 18.904 77.5478 19.336C77.9078 19.744 78.0878 20.212 78.0878 20.74C78.0878 21.052 78.0398 21.316 77.9438 21.532C77.8478 21.724 77.7398 21.82 77.6198 21.82C77.5238 21.82 77.4398 21.748 77.3678 21.604C77.1278 21.052 76.8638 20.656 76.5758 20.416C76.3118 20.176 76.0358 20.056 75.7478 20.056C75.2678 20.056 74.7878 20.332 74.3078 20.884C73.8518 21.412 73.4798 22.024 73.1918 22.72C72.9518 23.248 72.7238 23.884 72.5078 24.628C72.3158 25.348 72.1478 26.068 72.0038 26.788C71.8838 27.484 71.8238 28.06 71.8238 28.516C71.8238 29.332 72.0158 29.74 72.3998 29.74C72.8798 29.74 73.4918 29.212 74.2358 28.156C74.7878 27.388 75.2798 26.5 75.7118 25.492C76.1678 24.484 76.5518 23.608 76.8638 22.864C76.9838 22.624 77.1158 22.468 77.2598 22.396C77.4038 22.324 77.5358 22.288 77.6558 22.288C77.9438 22.288 78.1238 22.408 78.1958 22.648C78.2918 22.888 78.3398 23.092 78.3398 23.26C78.3398 23.884 78.2798 24.448 78.1598 24.952C78.0398 25.432 77.9798 26.02 77.9798 26.716C77.9798 27.22 78.0158 27.688 78.0878 28.12C78.1838 28.528 78.3398 28.732 78.5558 28.732C78.8198 28.732 79.1558 28.396 79.5638 27.724C79.6598 27.532 79.8038 27.436 79.9958 27.436C80.2118 27.436 80.3198 27.544 80.3198 27.76C80.3198 28.072 80.1038 28.408 79.6718 28.768C79.2398 29.104 78.8078 29.272 78.3758 29.272C77.7998 29.272 77.3918 29.032 77.1518 28.552C76.7438 27.76 76.5398 27.052 76.5398 26.428C76.5398 25.78 76.5278 25.336 76.5038 25.096C76.3838 25.384 76.1558 25.84 75.8198 26.464C75.4838 27.064 75.0878 27.7 74.6318 28.372C74.1758 29.02 73.6958 29.572 73.1918 30.028C72.6878 30.484 72.2198 30.712 71.7878 30.712ZM85.4928 36.724C85.1808 36.724 84.8808 36.604 84.5928 36.364C84.3288 36.124 84.1008 35.884 83.9088 35.644C83.1408 34.756 82.4928 33.58 81.9648 32.116C81.4608 30.652 81.0768 29.044 80.8128 27.292C80.5488 25.516 80.4168 23.716 80.4168 21.892C80.4168 20.188 80.5248 18.532 80.7408 16.924C80.9808 15.316 81.3408 13.852 81.8208 12.532C82.3008 11.212 82.9008 10.156 83.6208 9.364C84.5568 8.308 85.4568 7.78 86.3208 7.78C86.8488 7.78 87.2688 8.02 87.5808 8.5C87.9168 8.956 88.0848 9.688 88.0848 10.696C88.0848 11.656 87.8928 12.88 87.5088 14.368C87.1488 15.832 86.5248 17.584 85.6368 19.624C85.3248 20.296 84.9888 20.968 84.6288 21.64C84.2928 22.312 83.9328 23.02 83.5488 23.764C83.4048 24.052 83.2848 24.196 83.1888 24.196C83.1408 24.196 83.1168 24.148 83.1168 24.052C83.1168 23.86 83.2008 23.608 83.3688 23.296C85.5528 19.192 86.6448 15.112 86.6448 11.056C86.6448 9.448 86.3088 8.644 85.6368 8.644C85.1568 8.644 84.5928 9.112 83.9448 10.048C83.0568 11.368 82.4448 12.94 82.1088 14.764C81.7728 16.564 81.6048 18.388 81.6048 20.236C81.6048 21.628 81.6648 22.984 81.7848 24.304C81.9048 25.6 82.0488 26.776 82.2168 27.832C82.2888 28.288 82.3968 28.9 82.5408 29.668C82.6848 30.436 82.8768 31.24 83.1168 32.08C83.3568 32.944 83.6208 33.724 83.9088 34.42C84.2208 35.14 84.5568 35.656 84.9168 35.968C85.0128 36.04 85.1088 36.112 85.2048 36.184C85.3248 36.28 85.4568 36.34 85.6008 36.364C85.8168 36.364 85.9248 36.424 85.9248 36.544C85.9248 36.664 85.7808 36.724 85.4928 36.724ZM91.5397 36.724C91.2277 36.724 90.9277 36.604 90.6397 36.364C90.3757 36.124 90.1477 35.884 89.9557 35.644C89.1877 34.756 88.5397 33.58 88.0117 32.116C87.5077 30.652 87.1237 29.044 86.8597 27.292C86.5957 25.516 86.4637 23.716 86.4637 21.892C86.4637 20.188 86.5717 18.532 86.7877 16.924C87.0277 15.316 87.3877 13.852 87.8677 12.532C88.3477 11.212 88.9477 10.156 89.6677 9.364C90.6037 8.308 91.5037 7.78 92.3677 7.78C92.8957 7.78 93.3157 8.02 93.6277 8.5C93.9637 8.956 94.1317 9.688 94.1317 10.696C94.1317 11.656 93.9397 12.88 93.5557 14.368C93.1957 15.832 92.5717 17.584 91.6837 19.624C91.3717 20.296 91.0357 20.968 90.6757 21.64C90.3397 22.312 89.9797 23.02 89.5957 23.764C89.4517 24.052 89.3317 24.196 89.2357 24.196C89.1877 24.196 89.1637 24.148 89.1637 24.052C89.1637 23.86 89.2477 23.608 89.4157 23.296C91.5997 19.192 92.6917 15.112 92.6917 11.056C92.6917 9.448 92.3557 8.644 91.6837 8.644C91.2037 8.644 90.6397 9.112 89.9917 10.048C89.1037 11.368 88.4917 12.94 88.1557 14.764C87.8197 16.564 87.6517 18.388 87.6517 20.236C87.6517 21.628 87.7117 22.984 87.8317 24.304C87.9517 25.6 88.0957 26.776 88.2637 27.832C88.3357 28.288 88.4437 28.9 88.5877 29.668C88.7317 30.436 88.9237 31.24 89.1637 32.08C89.4037 32.944 89.6677 33.724 89.9557 34.42C90.2677 35.14 90.6037 35.656 90.9637 35.968C91.0597 36.04 91.1557 36.112 91.2517 36.184C91.3717 36.28 91.5037 36.34 91.6477 36.364C91.8637 36.364 91.9717 36.424 91.9717 36.544C91.9717 36.664 91.8277 36.724 91.5397 36.724ZM92.4026 45.148C91.4666 45.148 90.7106 44.896 90.1346 44.392C89.5586 43.912 89.2706 43.264 89.2706 42.448C89.2706 41.728 89.4746 41.008 89.8826 40.288C90.2666 39.592 90.7466 38.92 91.3226 38.272C91.9226 37.648 92.5226 37.096 93.1226 36.616C94.1786 35.776 95.4266 34.984 96.8666 34.24C98.3306 33.496 99.9746 32.932 101.799 32.548C101.823 32.284 101.835 32.008 101.835 31.72C101.835 31.456 101.835 31.192 101.835 30.928C101.835 28.984 101.703 27.22 101.439 25.636C101.175 24.028 100.875 22.648 100.539 21.496C99.5786 23.872 98.7266 25.852 97.9826 27.436C97.2386 28.996 96.8306 30.304 96.7586 31.36C96.7346 31.528 96.6266 31.708 96.4346 31.9C96.2666 32.116 96.0746 32.224 95.8586 32.224C95.7146 32.224 95.5706 32.14 95.4266 31.972C95.3066 31.828 95.2226 31.564 95.1746 31.18C95.1746 31.084 95.1626 30.952 95.1386 30.784C95.1386 30.616 95.1386 30.316 95.1386 29.884C95.1386 29.452 95.1386 28.804 95.1386 27.94C95.1386 27.172 95.1146 26.392 95.0666 25.6C95.0426 24.784 94.9586 24.028 94.8146 23.332C94.6706 22.636 94.4546 22.072 94.1666 21.64C93.9026 21.208 93.5306 20.992 93.0506 20.992C92.6666 20.992 92.3066 21.136 91.9706 21.424C91.6586 21.712 91.3946 22 91.1786 22.288C90.9626 22.552 90.7946 22.684 90.6746 22.684C90.5786 22.684 90.5306 22.648 90.5306 22.576C90.5306 22.528 90.5666 22.456 90.6386 22.36C90.6866 22.24 90.7346 22.144 90.7826 22.072C90.9986 21.76 91.2746 21.448 91.6106 21.136C91.9706 20.824 92.3426 20.56 92.7266 20.344C93.1346 20.104 93.4946 19.984 93.8066 19.984C94.4546 19.984 94.9586 20.32 95.3186 20.992C95.6786 21.64 95.9306 22.468 96.0746 23.476C96.2426 24.484 96.3266 25.516 96.3266 26.572C96.3266 27.028 96.3026 27.58 96.2546 28.228C96.2066 28.876 96.1466 29.428 96.0746 29.884C96.5546 28.996 97.1666 27.76 97.9106 26.176C98.6546 24.592 99.4706 22.804 100.359 20.812L100.035 19.876V19.768C100.035 19.528 100.107 19.348 100.251 19.228C100.419 19.108 100.587 19.048 100.755 19.048C100.899 19.048 101.043 19.084 101.187 19.156C101.331 19.228 101.427 19.336 101.475 19.48C101.763 20.128 102.003 21.016 102.195 22.144C102.411 23.272 102.567 24.496 102.663 25.816C102.783 27.112 102.843 28.396 102.843 29.668C102.843 30.628 102.807 31.528 102.735 32.368C103.335 32.248 103.971 32.152 104.643 32.08C105.339 32.008 105.939 31.972 106.443 31.972C106.755 31.972 106.911 32.02 106.911 32.116C106.911 32.308 106.659 32.428 106.155 32.476C105.579 32.524 104.991 32.584 104.391 32.656C103.815 32.752 103.227 32.872 102.627 33.016C102.123 35.776 101.331 37.984 100.251 39.64C99.1946 41.32 98.1026 42.58 96.9746 43.42C96.1586 44.02 95.3546 44.452 94.5626 44.716C93.7946 45.004 93.0746 45.148 92.4026 45.148ZM92.1146 44.392C92.5226 44.392 92.9906 44.308 93.5186 44.14C94.0706 43.972 94.6466 43.708 95.2466 43.348C97.1666 42.22 98.6546 40.792 99.7106 39.064C100.767 37.36 101.439 35.416 101.727 33.232C100.311 33.616 98.8826 34.168 97.4426 34.888C96.0266 35.632 94.7306 36.496 93.5546 37.48C93.0266 37.936 92.4986 38.452 91.9706 39.028C91.4666 39.604 91.0466 40.192 90.7106 40.792C90.3746 41.416 90.2066 42.016 90.2066 42.592C90.2066 43.144 90.3746 43.576 90.7106 43.888C91.0466 44.224 91.5146 44.392 92.1146 44.392Z" fill="#FFA3A3"/>
<path d="M19.7607 33.212C19.4967 33.212 19.2807 33.128 19.1127 32.96C18.9207 32.816 18.8247 32.612 18.8247 32.348C18.8247 32.012 18.9927 31.616 19.3287 31.16C19.6407 30.704 20.1687 30.2 20.9127 29.648C21.0327 29.336 21.1167 29.048 21.1647 28.784C21.2367 28.52 21.2967 28.232 21.3447 27.92C21.5127 26.864 21.8127 25.796 22.2447 24.716C22.6767 23.612 23.1087 22.58 23.5407 21.62C23.0847 21.524 22.6287 21.164 22.1727 20.54C21.7407 19.916 21.5247 19.256 21.5247 18.56C21.5247 18.392 21.5607 18.116 21.6327 17.732C21.7047 17.324 21.8247 17.12 21.9927 17.12C22.2087 17.12 22.3167 17.3 22.3167 17.66C22.3167 18.02 22.3167 18.272 22.3167 18.416C22.3167 18.92 22.4607 19.424 22.7487 19.928C23.0367 20.432 23.3847 20.792 23.7927 21.008C24.2007 20.12 24.7167 19.076 25.3407 17.876C25.9647 16.652 26.6727 15.368 27.4647 14.024C28.2567 12.656 29.1207 11.324 30.0567 10.028C30.9927 8.732 31.9767 7.556 33.0087 6.5C34.0647 5.444 35.1567 4.604 36.2847 3.98C37.4127 3.356 38.5647 3.044 39.7407 3.044C40.7007 3.044 41.3967 3.296 41.8287 3.8C42.2607 4.28 42.4767 4.94 42.4767 5.78C42.4767 6.668 42.2607 7.688 41.8287 8.84C41.3967 9.992 40.7847 11.192 39.9927 12.44C39.2247 13.664 38.3247 14.864 37.2927 16.04C36.2607 17.192 35.1327 18.248 33.9087 19.208C32.6847 20.144 31.4127 20.888 30.0927 21.44C28.7727 21.992 27.4527 22.268 26.1327 22.268C25.8687 22.268 25.6047 22.256 25.3407 22.232C25.0767 22.184 24.8247 22.112 24.5847 22.016C24.1047 23.144 23.6607 24.272 23.2527 25.4C22.8447 26.528 22.5207 27.704 22.2807 28.928C24.1287 27.8 26.1327 26.984 28.2927 26.48C30.4527 25.976 32.6127 25.724 34.7727 25.724C35.3487 25.724 36.0087 25.832 36.7527 26.048C37.4967 26.24 38.1327 26.552 38.6607 26.984C39.2127 27.416 39.4887 28.004 39.4887 28.748C39.4887 29.348 39.4287 29.648 39.3087 29.648C39.1887 29.648 39.0447 29.432 38.8767 29C38.5407 28.136 38.0127 27.596 37.2927 27.38C36.5727 27.14 35.7807 27.02 34.9167 27.02C33.4527 27.02 32.1927 27.092 31.1367 27.236C30.1047 27.356 29.1447 27.548 28.2567 27.812C27.3927 28.076 26.4927 28.4 25.5567 28.784C24.6207 29.168 23.5167 29.612 22.2447 30.116C22.0527 31.22 21.6927 32.012 21.1647 32.492C20.6607 32.972 20.1927 33.212 19.7607 33.212ZM25.9527 21.62C27.2247 21.62 28.4847 21.344 29.7327 20.792C31.0047 20.216 32.2167 19.46 33.3687 18.524C34.5447 17.564 35.6247 16.508 36.6087 15.356C37.5927 14.204 38.4447 13.04 39.1647 11.864C39.9087 10.664 40.4847 9.536 40.8927 8.48C41.3007 7.4 41.5047 6.488 41.5047 5.744C41.5047 5.192 41.3727 4.76 41.1087 4.448C40.8687 4.136 40.4847 3.98 39.9567 3.98C39.0687 3.98 38.1327 4.292 37.1487 4.916C36.1887 5.54 35.2047 6.38 34.1967 7.436C33.1887 8.492 32.2047 9.656 31.2447 10.928C30.3087 12.2 29.4207 13.496 28.5807 14.816C27.7647 16.112 27.0327 17.348 26.3847 18.524C25.7367 19.676 25.2327 20.648 24.8727 21.44C24.9927 21.512 25.1727 21.56 25.4127 21.584C25.6527 21.608 25.8327 21.62 25.9527 21.62ZM43.9719 16.976C43.7559 16.976 43.5999 16.868 43.5039 16.652C43.4319 16.412 43.3959 16.244 43.3959 16.148C43.3959 15.764 43.5039 15.404 43.7199 15.068C43.9599 14.708 44.2239 14.516 44.5119 14.492H44.6199C44.9079 14.492 45.0999 14.564 45.1959 14.708C45.3159 14.828 45.3759 14.984 45.3759 15.176C45.3759 15.536 45.2199 15.932 44.9079 16.364C44.5959 16.772 44.2839 16.976 43.9719 16.976ZM42.1359 29.864C41.3199 29.864 40.7679 29.552 40.4799 28.928C40.1919 28.304 40.0479 27.584 40.0479 26.768C40.0479 25.952 40.1319 25.1 40.2999 24.212C40.4919 23.3 40.6959 22.472 40.9119 21.728C41.1519 20.984 41.3319 20.456 41.4519 20.144C41.7159 19.592 41.9799 19.124 42.2439 18.74C42.5079 18.332 42.7959 18.128 43.1079 18.128C43.3239 18.128 43.4799 18.212 43.5759 18.38C43.6959 18.524 43.7559 18.716 43.7559 18.956C43.7559 19.436 43.6239 19.928 43.3599 20.432C43.0959 20.912 42.8559 21.368 42.6399 21.8C42.1599 22.784 41.7759 23.66 41.4879 24.428C41.2239 25.196 41.0919 26.156 41.0919 27.308C41.0919 28.052 41.1639 28.592 41.3079 28.928C41.4759 29.264 41.7039 29.432 41.9919 29.432C42.3759 29.432 42.8199 29.216 43.3239 28.784C43.8279 28.328 44.3439 27.728 44.8719 26.984C45.3999 26.24 45.8679 25.436 46.2759 24.572C46.5399 24.02 46.7439 23.744 46.8879 23.744C46.9839 23.744 47.0319 23.84 47.0319 24.032C47.0319 24.296 46.9239 24.68 46.7079 25.184C46.5159 25.664 46.2759 26.156 45.9879 26.66C45.7239 27.164 45.4719 27.56 45.2319 27.848C44.8239 28.376 44.3559 28.844 43.8279 29.252C43.2999 29.66 42.7359 29.864 42.1359 29.864ZM49.2301 34.76C48.9901 34.76 48.7381 34.604 48.4741 34.292C48.2341 34.004 48.0061 33.596 47.7901 33.068C47.4301 32.204 47.1781 31.292 47.0341 30.332C46.8901 29.396 46.8181 28.448 46.8181 27.488C46.8181 26.432 46.8901 25.4 47.0341 24.392C47.1781 23.384 47.3341 22.472 47.5021 21.656C47.6221 21.08 47.7661 20.468 47.9341 19.82C48.1021 19.172 48.2581 18.656 48.4021 18.272C48.2581 18.296 48.0301 18.38 47.7181 18.524C47.4061 18.668 47.0821 18.812 46.7461 18.956C46.4341 19.1 46.1581 19.172 45.9181 19.172C45.5581 19.172 45.3781 18.968 45.3781 18.56C45.3781 18.344 45.4501 18.152 45.5941 17.984C45.7621 17.816 45.9661 17.684 46.2061 17.588C46.6861 17.372 47.2141 17.216 47.7901 17.12C48.3661 17 48.7501 16.88 48.9421 16.76L49.8781 14.384C49.9741 14.144 50.1421 13.76 50.3821 13.232C50.6461 12.68 50.9461 12.092 51.2821 11.468C51.6421 10.844 51.9901 10.28 52.3261 9.776C52.5901 9.392 52.8421 9.092 53.0821 8.876C53.3221 8.636 53.5861 8.516 53.8741 8.516C54.3061 8.516 54.5221 8.684 54.5221 9.02C54.5221 9.212 54.4381 9.5 54.2701 9.884C54.1261 10.268 53.8501 10.772 53.4421 11.396C52.9861 12.116 52.5181 12.836 52.0381 13.556C51.5821 14.252 51.1861 14.984 50.8501 15.752C50.8261 15.848 50.7661 16.004 50.6701 16.22C50.5981 16.412 50.5381 16.532 50.4901 16.58L51.2101 16.472C51.4021 16.448 51.6181 16.436 51.8581 16.436C52.0981 16.412 52.3621 16.4 52.6501 16.4C53.0581 16.4 53.4421 16.424 53.8021 16.472C54.1861 16.496 54.4981 16.556 54.7381 16.652C54.8581 16.7 54.9661 16.76 55.0621 16.832C55.1821 16.88 55.2421 16.928 55.2421 16.976C55.2421 17.072 54.9301 17.12 54.3061 17.12C53.9461 17.12 53.4301 17.18 52.7581 17.3C52.1101 17.42 51.3661 17.612 50.5261 17.876C50.1181 17.996 49.8421 18.164 49.6981 18.38C49.5541 18.596 49.3621 19.112 49.1221 19.928C48.7621 21.224 48.4741 22.472 48.2581 23.672C48.0421 24.848 47.8741 26.048 47.7541 27.272C47.7301 27.512 47.7061 27.764 47.6821 28.028C47.6821 28.292 47.6821 28.58 47.6821 28.892C47.6821 29.708 47.7541 30.56 47.8981 31.448C48.0661 32.336 48.3061 33.104 48.6181 33.752C48.6901 33.896 48.7621 34.028 48.8341 34.148C48.9301 34.268 49.0381 34.352 49.1581 34.4C49.3261 34.472 49.4101 34.556 49.4101 34.652C49.4101 34.724 49.3501 34.76 49.2301 34.76ZM55.349 29.468C54.485 29.468 53.729 28.964 53.081 27.956C52.457 26.924 52.145 25.304 52.145 23.096C52.145 21.656 52.325 20.504 52.685 19.64C53.045 18.752 53.489 18.104 54.017 17.696C54.545 17.288 55.049 17.084 55.529 17.084C56.009 17.084 56.417 17.252 56.753 17.588C57.089 17.9 57.257 18.356 57.257 18.956C57.257 19.532 57.089 20.144 56.753 20.792C56.417 21.416 56.009 21.992 55.529 22.52C55.073 23.024 54.617 23.36 54.161 23.528C54.065 23.576 53.945 23.6 53.801 23.6C53.705 23.6 53.657 23.564 53.657 23.492C53.657 23.3 53.849 23.084 54.233 22.844C54.713 22.508 55.169 22.004 55.601 21.332C56.033 20.636 56.249 20.024 56.249 19.496C56.249 19.184 56.177 18.944 56.033 18.776C55.889 18.584 55.721 18.488 55.529 18.488C55.169 18.488 54.773 18.776 54.341 19.352C53.933 19.904 53.633 20.864 53.441 22.232C53.393 22.616 53.345 22.988 53.297 23.348C53.273 23.684 53.261 24.02 53.261 24.356C53.261 25.7 53.465 26.756 53.873 27.524C54.281 28.268 54.821 28.64 55.493 28.64C56.069 28.64 56.717 28.304 57.437 27.632C58.157 26.936 58.865 25.856 59.561 24.392C59.729 24.008 59.921 23.816 60.137 23.816C60.281 23.816 60.353 23.912 60.353 24.104C60.353 24.272 60.305 24.452 60.209 24.644C59.585 26.18 58.829 27.368 57.941 28.208C57.053 29.048 56.189 29.468 55.349 29.468ZM64.0697 30.8C63.3017 30.8 62.7137 30.44 62.3057 29.72C61.8977 29.024 61.6937 28.256 61.6937 27.416C61.6937 26.624 61.8257 25.796 62.0897 24.932C62.3537 24.068 62.6777 23.216 63.0617 22.376C63.4697 21.536 63.8897 20.768 64.3217 20.072C63.8897 20.24 63.4817 20.324 63.0977 20.324C62.9057 20.324 62.7377 20.3 62.5937 20.252C62.4497 20.204 62.3297 20.168 62.2337 20.144C62.1137 20.432 61.8977 20.912 61.5857 21.584C61.2977 22.256 60.9857 22.964 60.6497 23.708C60.3377 24.428 60.0617 25.04 59.8217 25.544C59.4377 26.36 59.1017 26.768 58.8137 26.768C58.6697 26.768 58.5977 26.672 58.5977 26.48C58.5977 26.336 58.6577 26.144 58.7777 25.904C59.3297 24.872 59.8457 23.852 60.3257 22.844C60.8297 21.836 61.2857 20.864 61.6937 19.928C61.6457 19.808 61.5977 19.652 61.5497 19.46C61.5017 19.244 61.4777 19.016 61.4777 18.776C61.4777 18.512 61.5017 18.236 61.5497 17.948C61.6217 17.636 61.7177 17.336 61.8377 17.048C61.9097 16.88 62.0417 16.64 62.2337 16.328C62.4257 15.992 62.6417 15.692 62.8817 15.428C63.1217 15.14 63.3497 14.996 63.5657 14.996C63.9737 14.996 64.1777 15.212 64.1777 15.644C64.1777 16.052 64.0457 16.52 63.7817 17.048C63.5417 17.576 63.2897 18.068 63.0257 18.524C62.7617 18.956 62.6297 19.28 62.6297 19.496C62.6297 19.688 62.7257 19.784 62.9177 19.784C63.1817 19.784 63.5057 19.652 63.8897 19.388C64.2977 19.1 64.6217 18.836 64.8617 18.596C64.9817 18.476 65.1737 18.296 65.4377 18.056C65.7017 17.792 65.9537 17.66 66.1937 17.66C66.4337 17.66 66.5897 17.732 66.6617 17.876C66.7577 18.02 66.8057 18.188 66.8057 18.38C66.8057 18.596 66.7097 18.872 66.5177 19.208C66.3257 19.52 66.0977 19.832 65.8337 20.144C65.5937 20.456 65.3897 20.72 65.2217 20.936C64.8857 21.44 64.5017 22.076 64.0697 22.844C63.6377 23.612 63.2657 24.44 62.9537 25.328C62.6417 26.192 62.4857 27.02 62.4857 27.812C62.4857 28.34 62.6177 28.892 62.8817 29.468C63.1457 30.044 63.5057 30.332 63.9617 30.332C64.3697 30.332 64.8017 30.116 65.2577 29.684C65.7377 29.252 66.1817 28.736 66.5897 28.136C67.0217 27.536 67.3937 26.96 67.7057 26.408C68.0417 25.856 68.2697 25.472 68.3897 25.256C68.4377 25.136 68.5217 24.992 68.6417 24.824C68.7617 24.632 68.9057 24.536 69.0737 24.536C69.2177 24.536 69.2897 24.608 69.2897 24.752C69.2897 24.872 69.2537 25.016 69.1817 25.184C69.1337 25.328 69.0857 25.46 69.0377 25.58C68.8217 26.084 68.5577 26.612 68.2457 27.164C67.9337 27.716 67.7177 28.088 67.5977 28.28C67.2617 28.832 66.7577 29.384 66.0857 29.936C65.4377 30.512 64.7657 30.8 64.0697 30.8ZM69.7878 28.712C69.3558 28.712 69.0438 28.532 68.8518 28.172C68.6598 27.788 68.5638 27.344 68.5638 26.84C68.5638 26.192 68.6718 25.436 68.8878 24.572C69.1278 23.708 69.4398 22.82 69.8238 21.908C70.2078 20.972 70.6398 20.12 71.1198 19.352C71.6238 18.56 72.1518 17.924 72.7038 17.444C73.2558 16.94 73.7958 16.688 74.3238 16.688C74.8038 16.688 75.2118 16.904 75.5478 17.336C75.9078 17.744 76.0878 18.212 76.0878 18.74C76.0878 19.052 76.0398 19.316 75.9438 19.532C75.8478 19.724 75.7398 19.82 75.6198 19.82C75.5238 19.82 75.4398 19.748 75.3678 19.604C75.1278 19.052 74.8638 18.656 74.5758 18.416C74.3118 18.176 74.0358 18.056 73.7478 18.056C73.2678 18.056 72.7878 18.332 72.3078 18.884C71.8518 19.412 71.4798 20.024 71.1918 20.72C70.9518 21.248 70.7238 21.884 70.5078 22.628C70.3158 23.348 70.1478 24.068 70.0038 24.788C69.8838 25.484 69.8238 26.06 69.8238 26.516C69.8238 27.332 70.0158 27.74 70.3998 27.74C70.8798 27.74 71.4918 27.212 72.2358 26.156C72.7878 25.388 73.2798 24.5 73.7118 23.492C74.1678 22.484 74.5518 21.608 74.8638 20.864C74.9838 20.624 75.1158 20.468 75.2598 20.396C75.4038 20.324 75.5358 20.288 75.6558 20.288C75.9438 20.288 76.1238 20.408 76.1958 20.648C76.2918 20.888 76.3398 21.092 76.3398 21.26C76.3398 21.884 76.2798 22.448 76.1598 22.952C76.0398 23.432 75.9798 24.02 75.9798 24.716C75.9798 25.22 76.0158 25.688 76.0878 26.12C76.1838 26.528 76.3398 26.732 76.5558 26.732C76.8198 26.732 77.1558 26.396 77.5638 25.724C77.6598 25.532 77.8038 25.436 77.9958 25.436C78.2118 25.436 78.3198 25.544 78.3198 25.76C78.3198 26.072 78.1038 26.408 77.6718 26.768C77.2398 27.104 76.8078 27.272 76.3758 27.272C75.7998 27.272 75.3918 27.032 75.1518 26.552C74.7438 25.76 74.5398 25.052 74.5398 24.428C74.5398 23.78 74.5278 23.336 74.5038 23.096C74.3838 23.384 74.1558 23.84 73.8198 24.464C73.4838 25.064 73.0878 25.7 72.6318 26.372C72.1758 27.02 71.6958 27.572 71.1918 28.028C70.6878 28.484 70.2198 28.712 69.7878 28.712ZM83.4928 34.724C83.1808 34.724 82.8808 34.604 82.5928 34.364C82.3288 34.124 82.1008 33.884 81.9088 33.644C81.1408 32.756 80.4928 31.58 79.9648 30.116C79.4608 28.652 79.0768 27.044 78.8128 25.292C78.5488 23.516 78.4168 21.716 78.4168 19.892C78.4168 18.188 78.5248 16.532 78.7408 14.924C78.9808 13.316 79.3408 11.852 79.8208 10.532C80.3008 9.212 80.9008 8.156 81.6208 7.364C82.5568 6.308 83.4568 5.78 84.3208 5.78C84.8488 5.78 85.2688 6.02 85.5808 6.5C85.9168 6.956 86.0848 7.688 86.0848 8.696C86.0848 9.656 85.8928 10.88 85.5088 12.368C85.1488 13.832 84.5248 15.584 83.6368 17.624C83.3248 18.296 82.9888 18.968 82.6288 19.64C82.2928 20.312 81.9328 21.02 81.5488 21.764C81.4048 22.052 81.2848 22.196 81.1888 22.196C81.1408 22.196 81.1168 22.148 81.1168 22.052C81.1168 21.86 81.2008 21.608 81.3688 21.296C83.5528 17.192 84.6448 13.112 84.6448 9.056C84.6448 7.448 84.3088 6.644 83.6368 6.644C83.1568 6.644 82.5928 7.112 81.9448 8.048C81.0568 9.368 80.4448 10.94 80.1088 12.764C79.7728 14.564 79.6048 16.388 79.6048 18.236C79.6048 19.628 79.6648 20.984 79.7848 22.304C79.9048 23.6 80.0488 24.776 80.2168 25.832C80.2888 26.288 80.3968 26.9 80.5408 27.668C80.6848 28.436 80.8768 29.24 81.1168 30.08C81.3568 30.944 81.6208 31.724 81.9088 32.42C82.2208 33.14 82.5568 33.656 82.9168 33.968C83.0128 34.04 83.1088 34.112 83.2048 34.184C83.3248 34.28 83.4568 34.34 83.6008 34.364C83.8168 34.364 83.9248 34.424 83.9248 34.544C83.9248 34.664 83.7808 34.724 83.4928 34.724ZM89.5397 34.724C89.2277 34.724 88.9277 34.604 88.6397 34.364C88.3757 34.124 88.1477 33.884 87.9557 33.644C87.1877 32.756 86.5397 31.58 86.0117 30.116C85.5077 28.652 85.1237 27.044 84.8597 25.292C84.5957 23.516 84.4637 21.716 84.4637 19.892C84.4637 18.188 84.5717 16.532 84.7877 14.924C85.0277 13.316 85.3877 11.852 85.8677 10.532C86.3477 9.212 86.9477 8.156 87.6677 7.364C88.6037 6.308 89.5037 5.78 90.3677 5.78C90.8957 5.78 91.3157 6.02 91.6277 6.5C91.9637 6.956 92.1317 7.688 92.1317 8.696C92.1317 9.656 91.9397 10.88 91.5557 12.368C91.1957 13.832 90.5717 15.584 89.6837 17.624C89.3717 18.296 89.0357 18.968 88.6757 19.64C88.3397 20.312 87.9797 21.02 87.5957 21.764C87.4517 22.052 87.3317 22.196 87.2357 22.196C87.1877 22.196 87.1637 22.148 87.1637 22.052C87.1637 21.86 87.2477 21.608 87.4157 21.296C89.5997 17.192 90.6917 13.112 90.6917 9.056C90.6917 7.448 90.3557 6.644 89.6837 6.644C89.2037 6.644 88.6397 7.112 87.9917 8.048C87.1037 9.368 86.4917 10.94 86.1557 12.764C85.8197 14.564 85.6517 16.388 85.6517 18.236C85.6517 19.628 85.7117 20.984 85.8317 22.304C85.9517 23.6 86.0957 24.776 86.2637 25.832C86.3357 26.288 86.4437 26.9 86.5877 27.668C86.7317 28.436 86.9237 29.24 87.1637 30.08C87.4037 30.944 87.6677 31.724 87.9557 32.42C88.2677 33.14 88.6037 33.656 88.9637 33.968C89.0597 34.04 89.1557 34.112 89.2517 34.184C89.3717 34.28 89.5037 34.34 89.6477 34.364C89.8637 34.364 89.9717 34.424 89.9717 34.544C89.9717 34.664 89.8277 34.724 89.5397 34.724ZM90.4026 43.148C89.4666 43.148 88.7106 42.896 88.1346 42.392C87.5586 41.912 87.2706 41.264 87.2706 40.448C87.2706 39.728 87.4746 39.008 87.8826 38.288C88.2666 37.592 88.7466 36.92 89.3226 36.272C89.9226 35.648 90.5226 35.096 91.1226 34.616C92.1786 33.776 93.4266 32.984 94.8666 32.24C96.3306 31.496 97.9746 30.932 99.7986 30.548C99.8226 30.284 99.8346 30.008 99.8346 29.72C99.8346 29.456 99.8346 29.192 99.8346 28.928C99.8346 26.984 99.7026 25.22 99.4386 23.636C99.1746 22.028 98.8746 20.648 98.5386 19.496C97.5786 21.872 96.7266 23.852 95.9826 25.436C95.2386 26.996 94.8306 28.304 94.7586 29.36C94.7346 29.528 94.6266 29.708 94.4346 29.9C94.2666 30.116 94.0746 30.224 93.8586 30.224C93.7146 30.224 93.5706 30.14 93.4266 29.972C93.3066 29.828 93.2226 29.564 93.1746 29.18C93.1746 29.084 93.1626 28.952 93.1386 28.784C93.1386 28.616 93.1386 28.316 93.1386 27.884C93.1386 27.452 93.1386 26.804 93.1386 25.94C93.1386 25.172 93.1146 24.392 93.0666 23.6C93.0426 22.784 92.9586 22.028 92.8146 21.332C92.6706 20.636 92.4546 20.072 92.1666 19.64C91.9026 19.208 91.5306 18.992 91.0506 18.992C90.6666 18.992 90.3066 19.136 89.9706 19.424C89.6586 19.712 89.3946 20 89.1786 20.288C88.9626 20.552 88.7946 20.684 88.6746 20.684C88.5786 20.684 88.5306 20.648 88.5306 20.576C88.5306 20.528 88.5666 20.456 88.6386 20.36C88.6866 20.24 88.7346 20.144 88.7826 20.072C88.9986 19.76 89.2746 19.448 89.6106 19.136C89.9706 18.824 90.3426 18.56 90.7266 18.344C91.1346 18.104 91.4946 17.984 91.8066 17.984C92.4546 17.984 92.9586 18.32 93.3186 18.992C93.6786 19.64 93.9306 20.468 94.0746 21.476C94.2426 22.484 94.3266 23.516 94.3266 24.572C94.3266 25.028 94.3026 25.58 94.2546 26.228C94.2066 26.876 94.1466 27.428 94.0746 27.884C94.5546 26.996 95.1666 25.76 95.9106 24.176C96.6546 22.592 97.4706 20.804 98.3586 18.812L98.0346 17.876V17.768C98.0346 17.528 98.1066 17.348 98.2506 17.228C98.4186 17.108 98.5866 17.048 98.7546 17.048C98.8986 17.048 99.0426 17.084 99.1866 17.156C99.3306 17.228 99.4266 17.336 99.4746 17.48C99.7626 18.128 100.003 19.016 100.195 20.144C100.411 21.272 100.567 22.496 100.663 23.816C100.783 25.112 100.843 26.396 100.843 27.668C100.843 28.628 100.807 29.528 100.735 30.368C101.335 30.248 101.971 30.152 102.643 30.08C103.339 30.008 103.939 29.972 104.443 29.972C104.755 29.972 104.911 30.02 104.911 30.116C104.911 30.308 104.659 30.428 104.155 30.476C103.579 30.524 102.991 30.584 102.391 30.656C101.815 30.752 101.227 30.872 100.627 31.016C100.123 33.776 99.3306 35.984 98.2506 37.64C97.1946 39.32 96.1026 40.58 94.9746 41.42C94.1586 42.02 93.3546 42.452 92.5626 42.716C91.7946 43.004 91.0746 43.148 90.4026 43.148ZM90.1146 42.392C90.5226 42.392 90.9906 42.308 91.5186 42.14C92.0706 41.972 92.6466 41.708 93.2466 41.348C95.1666 40.22 96.6546 38.792 97.7106 37.064C98.7666 35.36 99.4386 33.416 99.7266 31.232C98.3106 31.616 96.8826 32.168 95.4426 32.888C94.0266 33.632 92.7306 34.496 91.5546 35.48C91.0266 35.936 90.4986 36.452 89.9706 37.028C89.4666 37.604 89.0466 38.192 88.7106 38.792C88.3746 39.416 88.2066 40.016 88.2066 40.592C88.2066 41.144 88.3746 41.576 88.7106 41.888C89.0466 42.224 89.5146 42.392 90.1146 42.392Z" fill="#BE7339"/>
</svg>
